<svg width="53" height="76" viewBox="0 0 53 76" fill="none" xmlns="http://www.w3.org/2000/svg">
<path d="M26.2513 15.293C23.7184 15.293 21.2422 16.0441 19.1361 17.4513C17.03 18.8586 15.3885 20.8588 14.4192 23.1989C13.4499 25.5391 13.1963 28.1142 13.6904 30.5985C14.1846 33.0828 15.4043 35.3648 17.1954 37.1559C18.9865 38.947 21.2685 40.1667 23.7528 40.6609C26.2371 41.155 28.8122 40.9014 31.1524 39.9321C33.4925 38.9628 35.4927 37.3213 36.9 35.2152C38.3072 33.1091 39.0583 30.633 39.0583 28.1C39.0544 24.7046 37.7038 21.4493 35.3029 19.0484C32.9019 16.6475 29.6467 15.2969 26.2513 15.293Z" fill="#E44F39"/>
<path d="M23.3743 59.0228L23.3053 58.9598L21.6733 57.4828L17.8333 54.0088L13.6583 54.4578L11.1033 54.7318L10.4973 54.7978L8.54634 55.0068L2.40234 68.0628L11.9163 68.1888L18.0743 75.4388L25.0743 60.5628L23.3743 59.0228Z" fill="#E44F39"/>
<path d="M43.9557 55.0048L42.0047 54.7958L41.3987 54.7318L38.8437 54.4568L34.6687 54.0078L30.8287 57.4818L29.1967 58.9588L29.1277 59.0218L27.4277 60.5618L34.4277 75.4378L40.5857 68.1878L50.0997 68.0618L43.9557 55.0048Z" fill="#E44F39"/>
<path d="M48.68 28.099L52.501 19.57L44.401 14.916L42.479 5.76902L33.186 6.76902L26.253 0.499023L19.32 6.76902L10.027 5.76902L8.105 14.916L0.00499725 19.57L3.821 28.099L0 36.629L8.1 41.283L10.022 50.43L10.73 50.354L13.287 50.079L15.842 49.805L16.527 49.732L19.313 49.432L21.413 51.332L23.624 53.332L24.313 53.956L25.326 54.872L26.248 55.706L27.17 54.872L28.183 53.956L28.872 53.332L30.592 51.778L33.178 49.438L37.694 49.922L38.154 49.972L39.205 50.085L41.76 50.36L42.468 50.436L44.39 41.289L52.49 36.635L48.68 28.099ZM26.253 45.299C22.8512 45.299 19.5257 44.2903 16.6972 42.4003C13.8687 40.5103 11.6641 37.8241 10.3623 34.6812C9.06044 31.5383 8.71983 28.0799 9.38349 24.7435C10.0472 21.407 11.6853 18.3423 14.0908 15.9368C16.4962 13.5313 19.561 11.8932 22.8974 11.2295C26.2339 10.5659 29.6923 10.9065 32.8352 12.2083C35.978 13.5101 38.6643 15.7147 40.5543 18.5432C42.4442 21.3717 43.453 24.6972 43.453 28.099C43.4485 32.6594 41.6349 37.0316 38.4103 40.2563C35.1856 43.4809 30.8133 45.2945 26.253 45.299Z" fill="#E44F39"/>
</svg>
