<svg width="157" height="35" viewBox="0 0 157 35" fill="none" xmlns="http://www.w3.org/2000/svg">
<path d="M21.968 8.42969L20.2929 13.5624L18.8395 18.0155L24.2282 16.6119L15.2539 27.334C15.9889 27.5043 16.7537 27.5973 17.5405 27.5973C23.1156 27.5973 27.6351 23.0778 27.6351 17.5027C27.6351 13.5162 25.3234 10.0702 21.968 8.42969Z" fill="#FFE175"/>
<path d="M17.5399 7.40234C11.9648 7.40234 7.44531 11.9218 7.44531 17.4969C7.44531 21.4835 9.75699 24.9295 13.1124 26.57L16.2409 16.9842L10.8522 18.3878L19.8265 7.66562C19.0915 7.49534 18.3267 7.40234 17.5399 7.40234Z" fill="#FFE175"/>
<path d="M31.8261 22.433C31.5366 22.1435 31.423 21.7214 31.5301 21.3316C31.7589 20.498 31.9141 19.6402 31.9911 18.7821C32.0301 18.348 32.3237 17.9702 32.7391 17.8194L35.0769 16.971C35.0405 15.7337 34.8717 14.5012 34.5743 13.2995L32.0922 13.1085C31.8188 13.0875 31.5623 12.9698 31.3695 12.7771C31.2554 12.6629 31.1689 12.5288 31.1126 12.3783C30.9579 11.9655 30.787 11.5651 30.605 11.188C30.4229 10.811 30.2156 10.4283 29.9886 10.0504C29.7633 9.67537 29.7781 9.19615 30.026 8.82921L31.4199 6.7664C30.9654 6.17735 30.4701 5.61412 29.9454 5.08925C29.5986 4.74252 29.2334 4.4072 28.8571 4.08984L26.7389 5.39332C26.3626 5.62479 25.8841 5.61974 25.5198 5.38041C24.8327 4.92889 24.1007 4.535 23.3442 4.20492L23.3428 4.20212L22.8464 5.7234C27.3313 7.74897 30.4543 12.2574 30.4543 17.4981C30.4543 24.632 24.6712 30.4152 17.5373 30.4152C16.0427 30.4152 14.6088 30.1584 13.2736 29.6914L12.1443 31.0405L11.3359 32.0062C11.8391 31.3818 12.3423 31.3058 12.4542 31.5061C12.4927 31.6155 12.5193 31.7299 12.5232 31.8489L12.6084 34.3348C13.8003 34.6841 15.0272 34.9066 16.263 34.9979L17.2119 32.6997C17.3807 32.291 17.7714 32.0143 18.2072 31.9944C19.07 31.955 19.9335 31.8371 20.7743 31.644C21.1543 31.5566 21.5484 31.6715 21.8279 31.9512C21.8612 31.9843 21.8927 32.0201 21.9217 32.0571L23.4508 34.0163C24.0363 33.806 24.6121 33.5646 25.166 33.2972C25.7198 33.0298 26.267 32.7289 26.7958 32.4012L26.2123 29.9853C26.1085 29.5555 26.2615 29.102 26.6023 28.8297C27.2763 28.2913 27.9058 27.6883 28.4731 27.0373C28.7598 26.7083 29.2195 26.5745 29.6445 26.6965L32.0344 27.3827C32.7314 26.3582 33.3201 25.2587 33.7877 24.1081L31.8938 22.4957C31.8705 22.4757 31.8478 22.4547 31.8261 22.433Z" fill="#FFE175"/>
<path d="M4.62242 17.4998C4.62242 10.3659 10.4055 4.58275 17.5395 4.58275C19.034 4.58275 20.4679 4.83948 21.8032 5.30653L23.7408 2.99167C23.2376 3.61609 22.7345 3.69206 22.6226 3.49184C22.584 3.38238 22.5575 3.26804 22.5534 3.14904L22.4684 0.663152C21.2764 0.3138 20.0495 0.0913144 18.8136 0L17.8647 2.2982C17.6961 2.70687 17.3054 2.98362 16.8694 3.00365C16.0066 3.04313 15.143 3.16101 14.3023 3.35412C13.9223 3.44151 13.5282 3.32661 13.2486 3.04687C13.2153 3.01356 13.1839 2.97801 13.1549 2.94096L11.6257 0.981817C11.0402 1.19214 10.4645 1.43352 9.91061 1.7011C9.35673 1.9685 8.80959 2.26939 8.28098 2.59703L8.86442 5.01294C8.96827 5.44275 8.81521 5.89633 8.47446 6.1684C7.80046 6.70675 7.17099 7.30983 6.60364 7.96082C6.31697 8.28978 5.85722 8.42357 5.43227 8.30175L3.04238 7.61559C2.34536 8.64007 1.75668 9.7394 1.28907 10.89L3.18291 12.5024C3.20648 12.5224 3.22913 12.5434 3.25083 12.5651C3.54049 12.8548 3.65388 13.2767 3.54685 13.6665C3.318 14.5001 3.16288 15.3579 3.08579 16.216C3.04668 16.6501 2.75309 17.0279 2.33787 17.1787L0 18.0271C0.0364883 19.2644 0.205268 20.4969 0.502602 21.6986L2.98493 21.8896C3.25831 21.9108 3.51486 22.0285 3.70759 22.221C3.82173 22.3352 3.90818 22.4693 3.9645 22.6198C4.11925 23.0326 4.29009 23.4332 4.47216 23.81C4.65423 24.1871 4.86156 24.5698 5.08872 24.9477C5.31382 25.3227 5.29923 25.8021 5.0513 26.1689L3.65744 28.2317C4.11195 28.8207 4.60726 29.3842 5.13194 29.9088C5.47868 30.2556 5.84394 30.5909 6.22005 30.9082L8.33824 29.6048C8.71454 29.3731 9.193 29.3784 9.55732 29.6177C10.2444 30.0694 10.9764 30.4631 11.733 30.7932L11.7343 30.7962L11.735 30.7941L12.2309 29.2749C7.74545 27.2491 4.62242 22.7407 4.62242 17.4998Z" fill="#FFE175"/>
<path d="M31.6768 23.0863C31.654 23.0653 31.6323 23.0434 31.6115 23.0208C31.3342 22.7195 31.2382 22.2931 31.3613 21.9082C31.4238 21.7127 31.4815 21.5154 31.5357 21.3173C31.5767 21.1676 31.6128 21.0166 31.6489 20.8654C31.6628 20.8074 31.6787 20.7497 31.692 20.6915C31.7313 20.5177 31.7659 20.3429 31.7988 20.168C31.8056 20.132 31.814 20.0963 31.8205 20.0602C31.8538 19.8757 31.8821 19.6904 31.9083 19.5052C31.9122 19.4769 31.9175 19.4489 31.9214 19.4208C31.95 19.2088 31.974 18.9964 31.9931 18.7839C32.032 18.3497 32.3256 17.9719 32.741 17.8211L35.0775 16.9733C35.0766 16.9437 35.076 16.9143 35.0751 16.8848C35.0721 16.7994 35.0684 16.7143 35.0641 16.629C35.0605 16.5566 35.0566 16.4843 35.0521 16.4119C35.0472 16.3331 35.0416 16.2544 35.0356 16.1758C35.0296 16.0977 35.0235 16.0199 35.0165 15.9419C35.01 15.8687 35.0029 15.7957 34.9954 15.7226C34.987 15.6393 34.978 15.556 34.9683 15.473C34.9604 15.4054 34.952 15.338 34.9434 15.2707C34.932 15.1824 34.9202 15.094 34.9074 15.0059C34.8985 14.944 34.8891 14.8822 34.8796 14.8203C34.865 14.7265 34.85 14.633 34.8339 14.5394C34.8244 14.484 34.8145 14.4286 34.8043 14.3734C34.7862 14.2733 34.7673 14.1734 34.7473 14.0737C34.743 14.052 34.7383 14.0304 34.734 14.0087L32.2627 13.7153C31.9904 13.683 31.739 13.5548 31.5545 13.3544C31.4452 13.2356 31.3643 13.098 31.3142 12.9453C31.2517 12.7552 31.1849 12.5685 31.116 12.3844C31.1155 12.3829 31.1147 12.3816 31.1142 12.3801C30.9957 12.0644 30.8657 11.7598 30.7307 11.4635C30.5945 11.1673 30.4489 10.8692 30.2871 10.5729C30.2865 10.5719 30.2863 10.5708 30.2858 10.5699C30.1911 10.397 30.0932 10.2239 29.9899 10.0519C29.7647 9.67692 29.7794 9.19771 30.0274 8.83077L31.4205 6.76927C31.3911 6.73128 31.3613 6.69348 31.3318 6.65569C31.2592 6.56325 31.1864 6.47119 31.1119 6.38006C31.067 6.32523 31.0213 6.27134 30.9759 6.21727C30.9021 6.12932 30.8281 6.04137 30.7525 5.95492C30.7032 5.8986 30.6533 5.8434 30.6035 5.78783C30.5346 5.71092 30.4656 5.63439 30.3956 5.55879C30.2465 5.39805 30.0947 5.23882 29.9387 5.08332C29.9185 5.06311 29.8968 5.04384 29.8765 5.02382C29.7212 4.87038 29.5642 4.71862 29.4037 4.57155L29.403 4.57099L27.2327 5.78577C26.8473 6.00152 26.3694 5.97682 26.0153 5.72252C25.3475 5.24293 24.6323 4.81911 23.8902 4.45815L23.89 4.45778C23.8895 4.45759 23.8889 4.45722 23.8883 4.45703L23.33 5.95474C23.4078 5.99385 23.4842 6.03539 23.5611 6.07599C23.605 6.09919 23.6494 6.12165 23.693 6.14522C23.7852 6.19537 23.8762 6.24758 23.9671 6.29979C24.0087 6.32374 24.0506 6.34675 24.0917 6.37108C24.1819 6.42441 24.2708 6.47961 24.3597 6.53481C24.4005 6.56026 24.442 6.58496 24.4824 6.61097C24.5693 6.66635 24.6546 6.7238 24.7399 6.78124C24.7813 6.80913 24.8232 6.83626 24.8644 6.86451C24.9459 6.92084 25.0262 6.97903 25.1065 7.03722C25.1501 7.06885 25.1943 7.09972 25.2375 7.13191C25.3131 7.18823 25.3874 7.24605 25.4616 7.30406C25.5081 7.34017 25.555 7.37554 25.6009 7.41221C25.6697 7.46722 25.7371 7.52392 25.8046 7.58025C25.8546 7.62197 25.9051 7.66314 25.9545 7.70562C26.0157 7.7582 26.0756 7.81246 26.1358 7.86617C26.1899 7.91444 26.2444 7.96216 26.2977 8.01137C26.3512 8.06077 26.4036 8.11167 26.4564 8.162C26.5144 8.21739 26.573 8.2724 26.63 8.3291C26.6761 8.37457 26.7208 8.42135 26.7661 8.46775C26.828 8.531 26.8903 8.59406 26.9509 8.65862C26.9897 8.69978 27.0273 8.74207 27.0656 8.78399C27.1308 8.85509 27.1961 8.9262 27.2597 8.9988C27.2921 9.03585 27.3235 9.07383 27.3555 9.11126C27.423 9.19022 27.4904 9.26919 27.5561 9.34965C27.5828 9.3824 27.6085 9.41608 27.6349 9.44901C27.7041 9.53546 27.7728 9.62228 27.8398 9.7106C27.8615 9.73942 27.8824 9.7688 27.9041 9.7978C27.9737 9.89136 28.043 9.98529 28.1101 10.0807C28.1285 10.1067 28.1459 10.1333 28.164 10.1593C28.2329 10.2587 28.3012 10.3586 28.3672 10.46C28.3828 10.484 28.3977 10.5083 28.4131 10.5322C28.4801 10.6365 28.5461 10.7413 28.6101 10.8474C28.6245 10.8713 28.6382 10.8956 28.6524 10.9196C28.716 11.0266 28.7787 11.134 28.8392 11.2431C28.8532 11.2684 28.8665 11.2942 28.8803 11.3196C28.9394 11.4278 28.9978 11.5365 29.054 11.6467C29.0684 11.675 29.0819 11.7038 29.0961 11.7321C29.15 11.8398 29.2033 11.948 29.2544 12.0575C29.2701 12.0913 29.2849 12.1258 29.3002 12.1596C29.3477 12.264 29.3949 12.3688 29.4398 12.4747C29.4578 12.5172 29.4744 12.5604 29.492 12.6031C29.5322 12.7013 29.5727 12.7996 29.6107 12.8991C29.6309 12.9521 29.6494 13.0056 29.669 13.0589C29.7022 13.1491 29.7355 13.2391 29.7665 13.3301C29.7888 13.3954 29.8092 13.4614 29.8305 13.5271C29.8563 13.6072 29.8829 13.6869 29.9072 13.7677C29.9312 13.8471 29.9529 13.9272 29.9753 14.0071C29.9944 14.0752 30.0145 14.1431 30.0326 14.2116C30.0575 14.3059 30.0798 14.4009 30.1024 14.496C30.1157 14.5516 30.1299 14.6066 30.1424 14.6624C30.167 14.7713 30.1887 14.8809 30.2104 14.9907C30.2188 15.0338 30.2283 15.0766 30.2364 15.1199C30.259 15.2417 30.279 15.3642 30.2983 15.4872C30.3034 15.5195 30.3094 15.5517 30.3142 15.5843C30.3339 15.716 30.3505 15.8483 30.3662 15.9814C30.3692 16.0062 30.3728 16.0308 30.3756 16.0556C30.3906 16.1906 30.4027 16.3264 30.4136 16.4626C30.4155 16.4868 30.4183 16.5107 30.4199 16.5349C30.4295 16.6647 30.436 16.7951 30.4418 16.9259C30.4431 16.9579 30.4456 16.9897 30.4467 17.0217C30.4508 17.1357 30.4519 17.2502 30.4531 17.3649C30.4536 17.41 30.4557 17.4549 30.4557 17.5002C30.4557 17.5049 30.4553 17.5096 30.4553 17.5142C30.4549 17.6868 30.4518 17.86 30.4446 18.0341C30.4439 18.0541 30.4417 18.0737 30.4407 18.0936C30.4349 18.224 30.4244 18.3531 30.4147 18.4824C30.4082 18.5702 30.4031 18.6583 30.3947 18.7453C30.3814 18.8841 30.3636 19.0215 30.346 19.159C30.3361 19.2371 30.3277 19.3156 30.3163 19.3931C30.2959 19.5316 30.2712 19.6687 30.2465 19.8057C30.2328 19.8817 30.2208 19.9582 30.2057 20.0336C30.1793 20.1665 30.1486 20.2977 30.1181 20.429C30.1 20.5076 30.0833 20.5868 30.0637 20.6648C30.0326 20.7879 29.9976 20.9093 29.963 21.031C29.939 21.1157 29.9164 21.2013 29.8908 21.2853C29.8567 21.3966 29.8187 21.5063 29.7817 21.6165C29.7506 21.7087 29.7211 21.8015 29.6881 21.8928C29.6522 21.9922 29.6127 22.0899 29.5744 22.1881C29.5356 22.2877 29.498 22.388 29.4568 22.4864C29.42 22.5743 29.3799 22.6604 29.3414 22.7472C29.2942 22.8533 29.248 22.9598 29.1981 23.0642C29.1608 23.1422 29.1206 23.2184 29.0819 23.2955C29.0263 23.4061 28.9714 23.517 28.9127 23.6256C28.8747 23.6959 28.8341 23.7644 28.7948 23.8338C28.7314 23.9463 28.6685 24.0591 28.6019 24.1693C28.5622 24.235 28.5199 24.2988 28.4791 24.3636C28.4093 24.4747 28.3399 24.5861 28.2668 24.6948C28.2239 24.7584 28.1786 24.8201 28.1348 24.883C28.0602 24.99 27.9859 25.0973 27.9082 25.2019C27.8607 25.2657 27.8107 25.3274 27.7621 25.3903C27.6846 25.4906 27.6077 25.5911 27.5274 25.6889C27.473 25.7554 27.4159 25.8194 27.36 25.8847C27.2821 25.9758 27.2049 26.0677 27.1246 26.1566C27.0615 26.2262 26.9958 26.2933 26.9315 26.3616C26.8549 26.4427 26.7793 26.5246 26.7008 26.6036C26.6282 26.6767 26.5527 26.7469 26.4783 26.8184C26.4044 26.8891 26.3318 26.961 26.2562 27.0302C26.1736 27.1058 26.0883 27.1782 26.0037 27.2516C25.933 27.313 25.8636 27.3756 25.7915 27.4353C25.6993 27.512 25.6042 27.5854 25.5099 27.6597C25.4426 27.7126 25.3763 27.7669 25.3078 27.8186C25.207 27.8947 25.1033 27.9671 25.0002 28.0403C24.9351 28.0865 24.8711 28.134 24.805 28.1791C24.6974 28.2525 24.5874 28.3221 24.4776 28.3923C24.4128 28.4336 24.3492 28.4763 24.2839 28.5165C24.1724 28.585 24.0584 28.6495 23.9447 28.7147C23.8781 28.7528 23.8124 28.7925 23.7448 28.8296C23.632 28.8915 23.5171 28.9495 23.4022 29.0081C23.3309 29.0444 23.2606 29.0824 23.1887 29.1174C23.0777 29.1714 22.9645 29.2218 22.8517 29.2727C22.7731 29.3082 22.6955 29.3453 22.6159 29.3793C22.5095 29.4248 22.4011 29.4667 22.2931 29.5094C22.2048 29.5444 22.1171 29.5808 22.0276 29.614C21.9277 29.651 21.8263 29.6843 21.7252 29.7189C21.6253 29.7532 21.526 29.7885 21.4251 29.8205C21.333 29.8495 21.2395 29.8752 21.1467 29.9021C21.0346 29.9347 20.9229 29.9682 20.8097 29.9977C20.7251 30.0198 20.6392 30.0387 20.5539 30.0591C20.4306 30.0887 20.3074 30.1188 20.1828 30.1448C20.1042 30.1611 20.0245 30.1744 19.9454 30.1894C19.8127 30.2144 19.68 30.2397 19.546 30.2606C19.4704 30.2724 19.3939 30.2812 19.3178 30.2917C19.1795 30.3108 19.0412 30.3299 18.9016 30.3447C18.8238 30.3529 18.7452 30.358 18.667 30.3647C18.5287 30.3767 18.3906 30.3888 18.2512 30.3963C18.1642 30.401 18.0762 30.4023 17.9886 30.4055C17.8586 30.41 17.7289 30.4148 17.5979 30.4154C17.5781 30.4154 17.5585 30.4169 17.5384 30.4169C17.3848 30.4169 17.2323 30.4124 17.0802 30.4072C17.0549 30.4062 17.03 30.407 17.0048 30.406C17.0014 30.4059 16.9982 30.4055 16.995 30.4055C16.8592 30.3999 16.7245 30.3899 16.5897 30.38C16.5411 30.3765 16.4917 30.3748 16.4432 30.3707C16.2978 30.3583 16.1537 30.3419 16.0099 30.3248C15.9717 30.3203 15.9331 30.3173 15.8951 30.3125C15.7544 30.2945 15.615 30.2724 15.4758 30.2498C15.4352 30.2432 15.3942 30.2384 15.3538 30.2315C15.235 30.2111 15.1175 30.1867 14.9998 30.1632C14.9397 30.1512 14.8791 30.1411 14.8194 30.1282C14.7427 30.1117 14.6673 30.0919 14.5911 30.0741C14.143 29.9691 13.7032 29.8434 13.2749 29.6935L12.1456 31.0426L11.8945 31.3428C11.9082 31.3948 11.9187 31.4475 11.9252 31.5013C12.1849 31.3691 12.3893 31.3895 12.4555 31.5082C12.4941 31.6176 12.5206 31.732 12.5246 31.851L12.6095 34.3356C12.6365 34.3434 12.6634 34.3516 12.6903 34.3593C12.7807 34.3853 12.8713 34.4104 12.9619 34.4351C13.0186 34.4504 13.0753 34.4656 13.1321 34.4804C13.2285 34.5055 13.3251 34.5296 13.4218 34.553C13.4736 34.5655 13.5253 34.5781 13.5773 34.59C13.6795 34.6138 13.7818 34.6364 13.8845 34.6583C13.9313 34.6683 13.9779 34.6784 14.0249 34.6879C14.1327 34.71 14.2404 34.7309 14.3486 34.7512C14.3911 34.759 14.4337 34.7669 14.4762 34.7745C14.5879 34.7944 14.7 34.8131 14.8121 34.8309C14.852 34.8372 14.8916 34.8434 14.9315 34.8496C15.0456 34.8668 15.1601 34.8829 15.2745 34.8979C15.3132 34.9029 15.3519 34.908 15.3907 34.9128C15.4414 34.9192 15.4925 34.9244 15.5432 34.9302L16.5851 32.6752C16.7705 32.2739 17.1722 32.0134 17.6086 32.0117C17.8152 32.0108 18.0221 32.0048 18.2287 31.9951C18.3431 31.9896 18.4572 31.9797 18.5715 31.9717C18.6744 31.9644 18.7774 31.9589 18.8799 31.9494C18.9821 31.9399 19.0837 31.9262 19.1855 31.9146C19.2992 31.9015 19.4132 31.8903 19.5266 31.8746C19.6157 31.8622 19.7042 31.8461 19.7929 31.8321C19.9192 31.8121 20.046 31.7935 20.1716 31.7703C20.3739 31.7329 20.5752 31.6919 20.7752 31.6461C21.1553 31.5587 21.5493 31.6736 21.8289 31.9533C21.8622 31.9865 21.8936 32.0222 21.9227 32.0592L23.4505 34.0167C23.4915 34.0021 23.5324 33.9879 23.5732 33.9729C23.632 33.9514 23.6906 33.9293 23.7491 33.9071C23.8288 33.8769 23.9084 33.8462 23.9875 33.815C24.0603 33.7862 24.1327 33.7568 24.2049 33.727C24.2725 33.6993 24.3399 33.6713 24.407 33.6428C24.483 33.6105 24.5584 33.5775 24.6336 33.5442C24.7018 33.5141 24.7699 33.4836 24.8378 33.4525C24.9061 33.4213 24.974 33.3895 25.0419 33.3573C25.116 33.3221 25.1901 33.2867 25.264 33.2504C25.3295 33.2183 25.3948 33.1855 25.4601 33.1526C25.5298 33.1174 25.5994 33.0817 25.6686 33.0456C25.7442 33.0061 25.8194 32.9658 25.8945 32.9252C25.9495 32.8955 26.0045 32.8655 26.0591 32.835C26.0971 32.8139 26.1347 32.7922 26.1725 32.7709L25.6899 30.3349C25.6039 29.9012 25.7756 29.4542 26.1272 29.1965C26.2926 29.0752 26.4554 28.9495 26.616 28.8209C26.7152 28.7414 26.8117 28.6582 26.9088 28.576C26.9781 28.5174 27.0486 28.4607 27.1167 28.4009C27.2019 28.326 27.2842 28.2478 27.3678 28.1709C27.444 28.1007 27.5215 28.0321 27.5961 27.9604C27.6697 27.8897 27.7402 27.8161 27.8122 27.7439C27.894 27.6619 27.9769 27.5811 28.0566 27.4973C28.199 27.3474 28.3388 27.1947 28.4745 27.039C28.7611 26.7101 29.2209 26.5763 29.6458 26.6983L32.0333 27.3837C32.0623 27.341 32.0919 27.2989 32.1205 27.2559C32.1418 27.2241 32.1628 27.1921 32.1839 27.1601C32.2477 27.0632 32.3106 26.9657 32.3725 26.8674C32.3939 26.8336 32.415 26.7997 32.436 26.7656C32.4958 26.6691 32.555 26.572 32.613 26.4743C32.6351 26.437 32.6571 26.3994 32.6789 26.362C32.7341 26.2675 32.7885 26.1725 32.842 26.0768C32.8656 26.0346 32.889 25.9921 32.9122 25.9496C32.9623 25.8581 33.0119 25.7664 33.0604 25.674C33.0855 25.6263 33.1102 25.5784 33.1349 25.5305C33.1801 25.4425 33.2247 25.3542 33.2685 25.2655C33.2947 25.2123 33.3205 25.159 33.3461 25.1057C33.3867 25.0211 33.427 24.9363 33.4663 24.851C33.478 24.8256 33.4893 24.7999 33.5009 24.7745L31.6768 23.0863Z" fill="#FFE175"/>
<path d="M11.1903 30.5439L11.7485 29.0464C11.6707 29.0073 11.5943 28.9657 11.5174 28.9251C11.4734 28.9019 11.4291 28.8795 11.3855 28.8559C11.2932 28.8057 11.2023 28.7535 11.1114 28.7013C11.0698 28.6774 11.0279 28.6543 10.9867 28.63C10.8965 28.5769 10.8077 28.5215 10.7188 28.4663C10.678 28.4408 10.6364 28.4161 10.596 28.3901C10.5092 28.3347 10.4239 28.2773 10.3386 28.2199C10.2972 28.192 10.2553 28.1648 10.2141 28.1366C10.1325 28.0803 10.0523 28.0221 9.97199 27.9639C9.92839 27.9323 9.88422 27.9014 9.841 27.8692C9.7654 27.8129 9.69112 27.7551 9.61683 27.6972C9.57043 27.6611 9.52346 27.6257 9.47761 27.5891C9.40875 27.5341 9.34139 27.4774 9.27384 27.421C9.22388 27.3793 9.17336 27.3381 9.12396 27.2957C9.06277 27.2431 9.00289 27.1888 8.94264 27.1351C8.88856 27.0868 8.83411 27.0391 8.78078 26.9899C8.72726 26.9403 8.67487 26.8896 8.6221 26.8391C8.5641 26.7837 8.50553 26.7287 8.44845 26.672C8.40242 26.6263 8.3577 26.5798 8.31242 26.5333C8.25048 26.4701 8.18817 26.407 8.12754 26.3425C8.08881 26.3013 8.05139 26.259 8.01322 26.2175C7.94791 26.1462 7.88242 26.0749 7.8188 26.0021C7.78661 25.9654 7.75555 25.9276 7.72374 25.8906C7.656 25.8114 7.58845 25.7323 7.52259 25.6516C7.49583 25.6189 7.47019 25.5852 7.44381 25.5523C7.37476 25.4658 7.3059 25.379 7.23891 25.2907C7.21702 25.2619 7.19625 25.2325 7.17454 25.2035C7.10494 25.1099 7.0357 25.016 6.96852 24.9206C6.95019 24.8946 6.93279 24.868 6.91464 24.842C6.84578 24.7426 6.77766 24.6427 6.71142 24.5413C6.69589 24.5173 6.68092 24.493 6.66558 24.469C6.59859 24.3648 6.53254 24.26 6.46854 24.1539C6.45413 24.13 6.44047 24.1057 6.42625 24.0817C6.36263 23.9747 6.29995 23.8673 6.23951 23.7582C6.22547 23.7329 6.21219 23.7071 6.19834 23.6816C6.13921 23.5733 6.08083 23.4646 6.02469 23.3546C6.01029 23.3263 5.99681 23.2975 5.98259 23.2692C5.9287 23.1614 5.87537 23.0533 5.82429 22.9438C5.80838 22.91 5.79379 22.8753 5.77826 22.8413C5.73073 22.7369 5.68357 22.6325 5.63885 22.5266C5.6207 22.4839 5.60405 22.4405 5.58646 22.3976C5.54623 22.2996 5.506 22.2013 5.46801 22.1022C5.4478 22.0492 5.42928 21.9955 5.40963 21.9424C5.37651 21.8522 5.3432 21.7622 5.31214 21.6712C5.28988 21.6059 5.26948 21.5399 5.24815 21.4742C5.22232 21.3941 5.19575 21.3144 5.17143 21.2336C5.14748 21.1542 5.12577 21.0739 5.10332 20.994C5.08423 20.9259 5.06421 20.8582 5.04606 20.7895C5.02136 20.6952 4.9989 20.6002 4.97626 20.5051C4.96298 20.4495 4.94876 20.3945 4.93622 20.3387C4.91189 20.23 4.89 20.1204 4.86829 20.0107C4.85969 19.9675 4.85014 19.9247 4.8421 19.8812C4.81946 19.7596 4.79943 19.637 4.78016 19.5141C4.77511 19.4816 4.76912 19.4494 4.76426 19.4168C4.74461 19.2851 4.72795 19.1526 4.71224 19.0197C4.70924 18.9949 4.70569 18.9703 4.70288 18.9455C4.68791 18.8105 4.67575 18.6747 4.6649 18.5385C4.66302 18.5143 4.66022 18.4904 4.65853 18.4662C4.64899 18.3364 4.64244 18.206 4.63664 18.0752C4.63514 18.0432 4.6329 18.0114 4.63159 17.9792C4.62747 17.8652 4.62635 17.7507 4.62523 17.636C4.62466 17.5909 4.6226 17.546 4.6226 17.5007C4.6226 17.496 4.62298 17.4913 4.62298 17.4867C4.62335 17.314 4.62654 17.1409 4.63365 16.9669C4.63439 16.9468 4.63664 16.9272 4.63757 16.9073C4.64338 16.7769 4.65386 16.6478 4.66359 16.5185C4.67014 16.4308 4.67519 16.3426 4.68361 16.2556C4.69689 16.1168 4.71467 15.9794 4.73226 15.8419C4.74236 15.7639 4.7506 15.6855 4.76201 15.6078C4.78241 15.4691 4.80711 15.3322 4.83199 15.195C4.84565 15.119 4.85763 15.0427 4.8726 14.9673C4.89898 14.8344 4.92986 14.7031 4.96036 14.5717C4.97851 14.4931 4.99516 14.414 5.01481 14.3359C5.04587 14.2128 5.08105 14.0912 5.11548 13.9696C5.13943 13.8848 5.16188 13.7995 5.18771 13.7155C5.22176 13.6039 5.25975 13.4943 5.2968 13.3841C5.32767 13.2918 5.35724 13.1992 5.39017 13.1079C5.4261 13.0085 5.46558 12.9108 5.50394 12.8126C5.54267 12.7131 5.58029 12.6128 5.62145 12.5145C5.65831 12.4266 5.69836 12.3405 5.7369 12.2537C5.78406 12.1476 5.83028 12.0411 5.88024 11.9367C5.91747 11.8587 5.95789 11.7823 5.99663 11.7052C6.0522 11.5948 6.10703 11.4841 6.16559 11.3753C6.20377 11.3048 6.24456 11.2359 6.28385 11.1663C6.3471 11.0541 6.40979 10.9416 6.47621 10.8316C6.51607 10.7657 6.55836 10.7017 6.59934 10.6366C6.66914 10.5256 6.73837 10.4145 6.81135 10.3059C6.8542 10.2423 6.89948 10.1806 6.94326 10.1177C7.01793 10.0107 7.09221 9.90345 7.16987 9.79885C7.21721 9.73523 7.26717 9.67348 7.31563 9.6108C7.39329 9.51032 7.47038 9.40946 7.55084 9.3116C7.60511 9.24536 7.66218 9.18155 7.71775 9.11643C7.79578 9.02512 7.87306 8.93324 7.95352 8.84417C8.01658 8.77437 8.08226 8.70739 8.14663 8.6389C8.22316 8.55788 8.29876 8.47592 8.37735 8.39695C8.44995 8.32379 8.52536 8.25362 8.59984 8.18214C8.67356 8.11141 8.74635 8.03937 8.82195 7.97032C8.90465 7.89454 8.99017 7.82194 9.07474 7.7484C9.14529 7.68721 9.21452 7.62471 9.28638 7.56521C9.37882 7.4883 9.47406 7.41476 9.56874 7.34029C9.63592 7.28752 9.70197 7.23344 9.77027 7.18198C9.87113 7.10583 9.97479 7.03341 10.0779 6.96025C10.143 6.91403 10.207 6.8665 10.2731 6.82141C10.3807 6.74806 10.4907 6.67845 10.6005 6.60828C10.6653 6.56692 10.7289 6.52426 10.7942 6.48403C10.9057 6.41554 11.0197 6.35099 11.1334 6.28587C11.2001 6.24769 11.2659 6.20803 11.3333 6.17098C11.4461 6.10904 11.561 6.05103 11.6759 5.99247C11.7472 5.95616 11.8175 5.91818 11.8894 5.88319C12.0004 5.82911 12.1136 5.77877 12.2262 5.72788C12.3048 5.69232 12.3826 5.65528 12.462 5.62122C12.5685 5.57575 12.6768 5.53383 12.7846 5.49117C12.8731 5.45618 12.9607 5.41969 13.0501 5.38657C13.15 5.34952 13.2514 5.31622 13.3525 5.2816C13.4524 5.24735 13.5518 5.21199 13.6526 5.17999C13.7447 5.15099 13.8383 5.12535 13.9311 5.09841C14.0431 5.06585 14.1549 5.03235 14.2681 5.00279C14.3526 4.98071 14.4385 4.96181 14.5239 4.94141C14.6472 4.91185 14.7703 4.88172 14.8949 4.85571C14.9735 4.83925 15.0532 4.82596 15.1324 4.81118C15.265 4.7861 15.3977 4.76084 15.5317 4.73989C15.6073 4.7281 15.6838 4.7193 15.76 4.70882C15.8983 4.68974 16.0365 4.67065 16.1761 4.65587C16.254 4.64764 16.3326 4.64258 16.4108 4.63585C16.5491 4.62387 16.6871 4.61171 16.8266 4.60422C16.9136 4.59955 17.0015 4.59805 17.0891 4.59505C17.2191 4.59056 17.3488 4.5857 17.4798 4.58514C17.4996 4.58514 17.5193 4.58364 17.5393 4.58364C17.6929 4.58364 17.8454 4.58813 17.9976 4.59337C18.0228 4.59431 18.0477 4.59356 18.073 4.59468C18.0763 4.59487 18.0795 4.59524 18.0827 4.59524C18.2185 4.60085 18.3533 4.61077 18.488 4.62069C18.5366 4.62425 18.586 4.62593 18.6345 4.63005C18.7801 4.6424 18.9244 4.65886 19.0684 4.67608C19.1062 4.68057 19.1446 4.68356 19.1824 4.68824C19.3237 4.70639 19.4636 4.72847 19.6034 4.75111C19.6435 4.75766 19.6839 4.76234 19.7237 4.76926C19.8429 4.78966 19.9606 4.81417 20.0787 4.83775C20.1384 4.84973 20.1988 4.85983 20.2583 4.87255C20.335 4.88902 20.4105 4.90885 20.4866 4.92663C20.9348 5.03161 21.3745 5.15735 21.8028 5.30723L23.1832 3.65796C23.1695 3.60594 23.1591 3.55317 23.1525 3.49947C22.8928 3.63158 22.6885 3.61118 22.6222 3.49255C22.5837 3.38308 22.5571 3.26875 22.553 3.14974L22.468 0.665166C22.4413 0.657307 22.4145 0.649261 22.3876 0.641402C22.297 0.615393 22.2062 0.590132 22.1153 0.565432C22.0588 0.550088 22.0023 0.534931 21.9456 0.520148C21.849 0.495074 21.7523 0.470936 21.6554 0.447359C21.6037 0.434822 21.5523 0.422472 21.5004 0.410496C21.3981 0.386732 21.2955 0.363904 21.1928 0.342011C21.1462 0.332094 21.0996 0.322177 21.0528 0.312634C20.9451 0.290553 20.8371 0.269595 20.7287 0.249386C20.6863 0.241527 20.6438 0.233668 20.6013 0.225996C20.4896 0.206162 20.3775 0.187263 20.2654 0.169674C20.2256 0.163312 20.1859 0.157136 20.1461 0.150961C20.0319 0.133746 19.9176 0.117655 19.8031 0.102685C19.7643 0.0976328 19.7254 0.0925802 19.6867 0.0877151C19.636 0.081353 19.5851 0.0763003 19.5342 0.0703125L18.4921 2.32511C18.3067 2.72648 17.9049 2.98695 17.4686 2.98882C17.2622 2.98975 17.0554 2.99574 16.8488 3.00547C16.733 3.0109 16.6172 3.021 16.5013 3.02924C16.3999 3.03654 16.2985 3.04177 16.1973 3.05113C16.0947 3.06067 15.9926 3.07433 15.89 3.08612C15.7768 3.09903 15.6632 3.11026 15.5504 3.12598C15.4611 3.13833 15.3728 3.15442 15.2839 3.16845C15.1576 3.18829 15.031 3.207 14.9054 3.2302C14.7031 3.26763 14.5018 3.30861 14.3017 3.35445C13.9217 3.44184 13.5276 3.32694 13.2481 3.0472C13.2148 3.01389 13.1833 2.97834 13.1543 2.94129L11.6265 0.983832C11.5853 0.998614 11.544 1.01284 11.5028 1.02799C11.4446 1.04932 11.3866 1.07122 11.3286 1.09311C11.2483 1.12342 11.1684 1.1543 11.0889 1.18573C11.0163 1.21455 10.9441 1.24374 10.8718 1.27349C10.8043 1.30119 10.7367 1.32925 10.6696 1.35788C10.5938 1.39007 10.5184 1.423 10.4432 1.45631C10.375 1.48644 10.3069 1.51675 10.239 1.548C10.1703 1.57943 10.102 1.61143 10.0339 1.64362C9.9602 1.67861 9.88647 1.71379 9.81293 1.7499C9.74725 1.78208 9.68195 1.81483 9.61646 1.84795C9.54666 1.88332 9.47705 1.91887 9.40763 1.95517C9.33241 1.99447 9.25737 2.03451 9.18271 2.07511C9.12733 2.10505 9.07194 2.13518 9.01693 2.16568C8.97913 2.18664 8.9417 2.20834 8.90409 2.22967L9.38667 4.6656C9.47256 5.09934 9.30097 5.54618 8.94937 5.80403C8.78396 5.92529 8.62136 6.05085 8.46081 6.1794C8.36107 6.25911 8.26414 6.34294 8.16647 6.42546C8.09779 6.48365 8.02762 6.54016 7.95989 6.59967C7.87493 6.67433 7.79279 6.75217 7.70971 6.82889C7.63317 6.89925 7.55552 6.9683 7.48049 7.04034C7.40751 7.11051 7.33753 7.18348 7.26623 7.25515C7.1839 7.33767 7.10045 7.41906 7.02036 7.50346C6.87796 7.65334 6.73818 7.80584 6.60271 7.96152C6.31604 8.29048 5.85629 8.42427 5.43134 8.30246L3.04369 7.61704C3.01506 7.65933 2.98568 7.70106 2.95743 7.74353C2.93554 7.77628 2.91402 7.80921 2.89231 7.84196C2.82888 7.93832 2.76638 8.03506 2.70482 8.13274C2.6833 8.1668 2.66197 8.20123 2.64082 8.23547C2.58113 8.33165 2.52219 8.42839 2.46437 8.52588C2.44191 8.56349 2.41983 8.60148 2.39775 8.63927C2.34274 8.73358 2.28829 8.82826 2.23515 8.92351C2.21138 8.9658 2.18818 9.00827 2.16479 9.05075C2.11445 9.14225 2.06505 9.23431 2.0164 9.32675C1.99152 9.37409 1.967 9.42162 1.94249 9.46915C1.89721 9.55728 1.85248 9.64579 1.80851 9.73486C1.78231 9.788 1.75668 9.84114 1.73086 9.89466C1.69025 9.97924 1.65021 10.064 1.61091 10.1491C1.59912 10.1746 1.58771 10.2002 1.57611 10.2259L3.40071 11.9142C3.42335 11.9352 3.44525 11.9571 3.46602 11.9797C3.74333 12.281 3.83932 12.7074 3.7162 13.0923C3.6537 13.2879 3.59607 13.4851 3.5418 13.6835C3.50138 13.8315 3.46564 13.9808 3.4299 14.1303C3.4155 14.1902 3.39922 14.2495 3.38556 14.3096C3.34645 14.4828 3.31202 14.657 3.27909 14.8316C3.27216 14.8679 3.26374 14.904 3.25719 14.9403C3.22389 15.1248 3.19563 15.3103 3.16943 15.4957C3.1655 15.5238 3.16026 15.5519 3.15633 15.5799C3.12771 15.7919 3.10375 16.0043 3.08467 16.2169C3.04556 16.651 2.75197 17.0288 2.33675 17.1796L0 18.0274C0.000935599 18.057 0.00149705 18.0864 0.00243265 18.1159C0.00542656 18.2011 0.00916871 18.2862 0.0132853 18.3714C0.0168406 18.444 0.0207693 18.5168 0.0252601 18.5894C0.0301252 18.6676 0.0357399 18.7458 0.0415406 18.824C0.0475284 18.9026 0.0537028 18.9812 0.0608133 19.0596C0.0673625 19.1322 0.074473 19.2046 0.0817707 19.277C0.0903782 19.3609 0.0991749 19.4445 0.109092 19.5281C0.116951 19.5953 0.125371 19.6623 0.133978 19.7295C0.145393 19.8182 0.157181 19.9067 0.169906 19.9952C0.1787 20.0568 0.188055 20.1181 0.197598 20.1795C0.212194 20.2736 0.22735 20.3678 0.243442 20.4617C0.252985 20.5169 0.262718 20.5717 0.272822 20.6267C0.290973 20.7268 0.30987 20.8269 0.329892 20.9269C0.334196 20.9486 0.338874 20.9703 0.343177 20.9918L2.81447 21.2852C3.08673 21.3176 3.33822 21.4457 3.52272 21.6462C3.63199 21.7648 3.71283 21.9025 3.76298 22.0552C3.82548 22.2453 3.89228 22.4322 3.96114 22.6166C3.9617 22.6179 3.96245 22.6192 3.96301 22.6207C4.08146 22.9365 4.21169 23.2413 4.3466 23.5377C4.48264 23.8338 4.62822 24.1317 4.78989 24.4279C4.79045 24.4288 4.79083 24.4299 4.79139 24.4311C4.88607 24.604 4.98393 24.7769 5.08704 24.9488C5.31214 25.3238 5.29755 25.8032 5.04961 26.17L3.65651 28.2315C3.68588 28.2694 3.71564 28.3072 3.74539 28.345C3.8178 28.4375 3.89059 28.5295 3.96507 28.6205C4.00979 28.6751 4.05545 28.729 4.10092 28.7831C4.17483 28.8712 4.24893 28.9592 4.32453 29.0458C4.37374 29.1021 4.42388 29.1577 4.47385 29.2133C4.54233 29.2896 4.61082 29.366 4.68061 29.441C4.82994 29.6017 4.98188 29.7612 5.13793 29.917C5.16207 29.9412 5.18771 29.964 5.21203 29.9881C5.3636 30.1376 5.51666 30.2858 5.67328 30.4294C5.67328 30.4294 5.67366 30.4297 5.67403 30.4299L7.84425 29.2151C8.22971 28.9994 8.70762 29.0241 9.06165 29.2784C9.72948 29.758 10.4446 30.1818 11.1868 30.5428L11.187 30.5431C11.189 30.5435 11.1896 30.5439 11.1903 30.5439Z" fill="#FFE175"/>
<path d="M23.3483 4.20984L23.347 4.20703L23.2734 4.43232L23.4381 4.25138C23.408 4.23791 23.3786 4.22294 23.3483 4.20984Z" fill="#FFE175"/>
<path d="M11.7304 30.7965L11.7318 30.7995L11.7325 30.7975L11.8053 30.5742L11.6406 30.7552C11.6708 30.7684 11.7001 30.7834 11.7304 30.7965Z" fill="#FFE175"/>
<path d="M15.2539 27.3298C15.9889 27.5001 16.7537 27.5931 17.5405 27.5931C23.1156 27.5931 27.6351 23.0736 27.6351 17.4985C27.6351 17.4926 27.6351 17.4868 27.6351 17.4808C27.6336 16.5878 26.7721 15.9453 25.9079 16.1702L18.8395 18.0113L24.2282 16.6077L15.2539 27.3298Z" fill="#FFE175"/>
<path d="M17.5399 7.40234C11.9648 7.40234 7.44531 11.9218 7.44531 17.4969C7.44531 17.5029 7.44531 17.5087 7.44531 17.5147C7.44681 18.4076 8.30831 19.0502 9.17243 18.8253L10.8522 18.3878L19.8265 7.66562C19.0915 7.49534 18.3267 7.40234 17.5399 7.40234Z" fill="#FFE175"/>
<path d="M54.4081 28.86C52.8081 28.86 51.3981 28.605 50.1781 28.095C48.9681 27.585 48.0181 26.825 47.3281 25.815C46.6481 24.795 46.3081 23.53 46.3081 22.02C46.3081 21.86 46.3081 21.715 46.3081 21.585C46.3081 21.445 46.3081 21.295 46.3081 21.135H50.9731C50.9731 21.285 50.9731 21.42 50.9731 21.54C50.9731 21.65 50.9731 21.78 50.9731 21.93C50.9731 22.96 51.2631 23.75 51.8431 24.3C52.4231 24.85 53.2831 25.125 54.4231 25.125C55.5731 25.125 56.4581 24.945 57.0781 24.585C57.6981 24.215 58.0081 23.61 58.0081 22.77C58.0081 22.18 57.7731 21.66 57.3031 21.21C56.8431 20.76 56.2131 20.36 55.4131 20.01C54.6231 19.65 53.7181 19.315 52.6981 19.005C51.5881 18.655 50.5581 18.195 49.6081 17.625C48.6581 17.055 47.8931 16.33 47.3131 15.45C46.7431 14.57 46.4581 13.485 46.4581 12.195C46.4581 10.895 46.8031 9.79 47.4931 8.88C48.1831 7.96 49.1231 7.26 50.3131 6.78C51.5031 6.29 52.8481 6.045 54.3481 6.045C55.9181 6.045 57.3031 6.29 58.5031 6.78C59.7131 7.26 60.6581 7.985 61.3381 8.955C62.0281 9.915 62.3731 11.115 62.3731 12.555C62.3731 12.715 62.3731 12.865 62.3731 13.005C62.3731 13.135 62.3731 13.285 62.3731 13.455H57.7231C57.7231 13.345 57.7231 13.23 57.7231 13.11C57.7231 12.99 57.7231 12.875 57.7231 12.765C57.7231 11.795 57.4531 11.05 56.9131 10.53C56.3831 10.01 55.5481 9.75 54.4081 9.75C53.3081 9.75 52.4531 9.95 51.8431 10.35C51.2431 10.75 50.9431 11.365 50.9431 12.195C50.9431 12.795 51.1581 13.305 51.5881 13.725C52.0281 14.145 52.6281 14.52 53.3881 14.85C54.1481 15.18 55.0131 15.51 55.9831 15.84C57.3031 16.3 58.4531 16.81 59.4331 17.37C60.4231 17.92 61.1881 18.615 61.7281 19.455C62.2681 20.285 62.5381 21.345 62.5381 22.635C62.5381 23.955 62.1981 25.08 61.5181 26.01C60.8381 26.94 59.8831 27.65 58.6531 28.14C57.4331 28.62 56.0181 28.86 54.4081 28.86ZM73.5645 28.845C71.8445 28.845 70.3295 28.49 69.0195 27.78C67.7095 27.07 66.6845 26.095 65.9445 24.855C65.2145 23.605 64.8495 22.165 64.8495 20.535C64.8495 18.915 65.2145 17.485 65.9445 16.245C66.6845 14.995 67.7095 14.025 69.0195 13.335C70.3295 12.635 71.8445 12.285 73.5645 12.285C75.2845 12.285 76.7995 12.635 78.1095 13.335C79.4195 14.025 80.4395 14.995 81.1695 16.245C81.9095 17.485 82.2795 18.915 82.2795 20.535C82.2795 22.165 81.9095 23.605 81.1695 24.855C80.4395 26.095 79.4195 27.07 78.1095 27.78C76.7995 28.49 75.2845 28.845 73.5645 28.845ZM73.5645 25.155C74.3745 25.155 75.0795 24.965 75.6795 24.585C76.2795 24.205 76.7445 23.67 77.0745 22.98C77.4045 22.28 77.5695 21.465 77.5695 20.535C77.5695 19.605 77.4045 18.8 77.0745 18.12C76.7445 17.43 76.2795 16.9 75.6795 16.53C75.0795 16.16 74.3745 15.975 73.5645 15.975C72.7645 15.975 72.0595 16.16 71.4495 16.53C70.8495 16.9 70.3845 17.43 70.0545 18.12C69.7245 18.8 69.5595 19.605 69.5595 20.535C69.5595 21.465 69.7245 22.28 70.0545 22.98C70.3845 23.67 70.8495 24.205 71.4495 24.585C72.0595 24.965 72.7645 25.155 73.5645 25.155ZM89.9991 5.055V28.5H85.4091V5.055H89.9991ZM100.34 28.86C99.3895 28.86 98.4745 28.75 97.5945 28.53C96.7145 28.31 95.9245 27.985 95.2245 27.555C94.5345 27.125 93.9845 26.59 93.5745 25.95C93.1745 25.3 92.9745 24.545 92.9745 23.685C92.9745 23.645 92.9745 23.6 92.9745 23.55C92.9745 23.49 92.9745 23.445 92.9745 23.415H97.5945C97.5945 23.445 97.5945 23.48 97.5945 23.52C97.5945 23.55 97.5945 23.585 97.5945 23.625C97.5945 24.205 97.8495 24.63 98.3595 24.9C98.8795 25.17 99.5795 25.305 100.46 25.305C100.92 25.305 101.36 25.26 101.78 25.17C102.21 25.07 102.56 24.915 102.83 24.705C103.11 24.485 103.25 24.21 103.25 23.88C103.25 23.35 102.955 22.975 102.365 22.755C101.785 22.535 100.85 22.315 99.5595 22.095C98.8295 21.975 98.0895 21.805 97.3395 21.585C96.5895 21.365 95.8995 21.075 95.2695 20.715C94.6395 20.345 94.1345 19.88 93.7545 19.32C93.3745 18.75 93.1845 18.06 93.1845 17.25C93.1845 16.17 93.5095 15.26 94.1595 14.52C94.8195 13.78 95.6945 13.22 96.7845 12.84C97.8745 12.46 99.0745 12.27 100.385 12.27C101.635 12.27 102.8 12.48 103.88 12.9C104.96 13.31 105.835 13.905 106.505 14.685C107.175 15.455 107.51 16.385 107.51 17.475C107.51 17.495 107.51 17.525 107.51 17.565C107.51 17.605 107.51 17.645 107.51 17.685H102.935C102.935 17.645 102.935 17.61 102.935 17.58C102.935 17.55 102.935 17.525 102.935 17.505C102.935 17.105 102.805 16.78 102.545 16.53C102.295 16.28 101.975 16.095 101.585 15.975C101.195 15.845 100.79 15.78 100.37 15.78C99.9895 15.78 99.5945 15.825 99.1845 15.915C98.7845 15.995 98.4445 16.135 98.1645 16.335C97.8845 16.525 97.7445 16.795 97.7445 17.145C97.7445 17.485 97.8945 17.765 98.1945 17.985C98.4945 18.195 98.9145 18.37 99.4545 18.51C99.9945 18.64 100.62 18.765 101.33 18.885C102 18.995 102.705 19.15 103.445 19.35C104.195 19.54 104.895 19.815 105.545 20.175C106.205 20.525 106.735 20.99 107.135 21.57C107.545 22.14 107.75 22.865 107.75 23.745C107.75 24.655 107.54 25.435 107.12 26.085C106.7 26.735 106.13 27.265 105.41 27.675C104.7 28.075 103.905 28.37 103.025 28.56C102.155 28.76 101.26 28.86 100.34 28.86ZM118.356 28.83C117.746 28.83 117.116 28.775 116.466 28.665C115.826 28.565 115.226 28.36 114.666 28.05C114.116 27.73 113.671 27.265 113.331 26.655C112.991 26.045 112.821 25.24 112.821 24.24C112.821 24.02 112.821 23.795 112.821 23.565C112.821 23.335 112.821 23.105 112.821 22.875V16.17H109.146V12.57H110.181C110.781 12.57 111.256 12.545 111.606 12.495C111.966 12.445 112.231 12.32 112.401 12.12C112.581 11.91 112.696 11.585 112.746 11.145C112.796 10.705 112.821 10.1 112.821 9.33V7.32H117.486V12.57H122.121V16.17H117.486V21.9C117.486 22.08 117.486 22.255 117.486 22.425C117.486 22.595 117.486 22.76 117.486 22.92C117.486 23.61 117.566 24.17 117.726 24.6C117.896 25.03 118.311 25.245 118.971 25.245C119.301 25.245 119.611 25.215 119.901 25.155C120.201 25.095 120.426 25.035 120.576 24.975V28.47C120.366 28.56 120.071 28.64 119.691 28.71C119.311 28.79 118.866 28.83 118.356 28.83ZM129.959 28.83C128.799 28.83 127.764 28.645 126.854 28.275C125.954 27.905 125.249 27.37 124.739 26.67C124.229 25.97 123.974 25.12 123.974 24.12C123.974 22.99 124.284 22.07 124.904 21.36C125.524 20.65 126.344 20.11 127.364 19.74C128.394 19.36 129.509 19.11 130.709 18.99C132.459 18.82 133.664 18.665 134.324 18.525C134.994 18.385 135.329 18.14 135.329 17.79C135.329 17.78 135.329 17.77 135.329 17.76C135.329 17.17 135.044 16.705 134.474 16.365C133.914 16.025 133.129 15.855 132.119 15.855C131.049 15.855 130.229 16.05 129.659 16.44C129.099 16.82 128.819 17.405 128.819 18.195H124.244C124.244 16.915 124.589 15.835 125.279 14.955C125.979 14.075 126.924 13.41 128.114 12.96C129.304 12.5 130.649 12.27 132.149 12.27C133.549 12.27 134.844 12.485 136.034 12.915C137.224 13.335 138.179 13.97 138.899 14.82C139.629 15.67 139.994 16.75 139.994 18.06C139.994 18.27 139.994 18.48 139.994 18.69C139.994 18.89 139.994 19.095 139.994 19.305V24.945C139.994 25.355 140.004 25.75 140.024 26.13C140.054 26.5 140.114 26.84 140.204 27.15C140.304 27.5 140.429 27.79 140.579 28.02C140.729 28.25 140.854 28.41 140.954 28.5H136.379C136.309 28.43 136.199 28.285 136.049 28.065C135.909 27.845 135.789 27.59 135.689 27.3C135.569 26.95 135.479 26.6 135.419 26.25C135.369 25.89 135.344 25.47 135.344 24.99L136.304 25.65C136.024 26.31 135.569 26.88 134.939 27.36C134.319 27.83 133.579 28.195 132.719 28.455C131.869 28.705 130.949 28.83 129.959 28.83ZM131.204 25.35C131.934 25.35 132.614 25.22 133.244 24.96C133.884 24.69 134.404 24.27 134.804 23.7C135.204 23.13 135.404 22.385 135.404 21.465V19.86L136.559 20.985C135.899 21.225 135.134 21.425 134.264 21.585C133.404 21.735 132.544 21.855 131.684 21.945C130.664 22.045 129.899 22.22 129.389 22.47C128.889 22.71 128.639 23.12 128.639 23.7C128.639 24.25 128.854 24.665 129.284 24.945C129.714 25.215 130.354 25.35 131.204 25.35ZM143.397 28.5V12.57H148.062V18.06L147.102 17.46C147.212 16.71 147.412 16.02 147.702 15.39C147.992 14.76 148.367 14.215 148.827 13.755C149.287 13.285 149.832 12.92 150.462 12.66C151.102 12.4 151.832 12.27 152.652 12.27C153.292 12.27 153.792 12.32 154.152 12.42C154.522 12.51 154.752 12.58 154.842 12.63L154.077 16.8C153.987 16.75 153.787 16.67 153.477 16.56C153.167 16.45 152.767 16.395 152.277 16.395C151.477 16.395 150.807 16.53 150.267 16.8C149.727 17.07 149.292 17.43 148.962 17.88C148.642 18.32 148.412 18.81 148.272 19.35C148.132 19.89 148.062 20.435 148.062 20.985V28.5H143.397Z" fill="white"/>
</svg>
