<svg width="40" height="34" viewBox="0 0 40 34" fill="none" xmlns="http://www.w3.org/2000/svg">
<path d="M35.4674 16.3802C34.8515 16.262 34.2231 16.2495 33.6072 16.3366C33.433 13.4497 31.3238 10.9735 28.4184 10.4073C28.4121 10.4073 28.4059 10.4073 28.4059 10.4073C27.7962 5.79078 24.2561 2.00805 19.6458 1.11828C13.9965 0.0108626 8.52141 3.41407 7.00953 8.91407C3.61875 9.69797 0.93094 12.4542 0.259065 15.8885C-0.686638 20.7166 2.47399 25.4202 7.3082 26.3659C7.38289 26.3845 7.87438 26.3907 10.1888 26.4654C11.7567 30.3291 15.5581 33.0915 20.0004 33.0915C23.7334 33.0915 27.0184 31.1441 28.9036 28.2137C28.9036 28.2075 28.9098 28.2075 28.9098 28.2013C29.1462 27.8279 29.3578 27.4484 29.5444 27.0502L33.4143 27.1684C36.3758 27.7222 39.2377 25.7748 39.804 22.8133C40.3888 19.8518 38.4476 16.965 35.4674 16.3802ZM10.6927 21.8863C10.7923 20.3558 11.2652 18.9248 12.018 17.6804H14.9173C14.5751 18.9496 14.3698 20.3681 14.32 21.8863H10.6927ZM12.9201 28.5808H15.3092C15.7012 29.6323 16.1927 30.5406 16.7588 31.2561C15.2595 30.7024 13.9405 29.7754 12.9201 28.5808ZM16.2176 27.3365C15.8505 26.0859 15.6141 24.6549 15.5643 23.1306H24.4364C24.3866 24.6549 24.1502 26.0859 23.7831 27.3365H16.2176ZM16.6531 16.4361C17.4806 14.4514 18.6814 13.1635 20.0004 13.1635C21.3194 13.1635 22.5202 14.4514 23.3477 16.4361H16.6531ZM23.2419 31.2561C23.808 30.5406 24.2995 29.6323 24.6915 28.5808H27.0806C26.0602 29.7754 24.7412 30.7024 23.2419 31.2561ZM25.6808 21.8863C25.631 20.3681 25.4257 18.9496 25.0835 17.6804H27.9828C28.7356 18.9247 29.2084 20.3557 29.308 21.8863H25.6808ZM38.5845 22.5769C38.205 24.5491 36.8237 26.0113 33.5014 25.9241L30.0484 25.8184C30.3905 24.7794 30.5834 23.6656 30.5834 22.5084C30.5834 19.6341 29.4075 16.9898 27.5037 15.0611C25.5936 13.1323 22.9494 11.9191 20.0003 11.9191C14.1146 11.9191 9.41727 16.7534 9.41727 22.5084C9.41727 23.4417 9.54797 24.3438 9.77813 25.2087L7.49477 25.134C3.3636 24.3002 0.669612 20.2686 1.47836 16.125C2.08188 13.0577 4.55188 10.6188 7.62539 10.0527C7.86805 10.0091 8.06094 9.82868 8.11695 9.58602C9.32398 4.51539 14.2826 1.32993 19.4093 2.33782C23.64 3.15907 26.8505 6.72407 27.2175 11.0046C27.2487 11.3032 27.4851 11.5459 27.7899 11.5708C30.3034 11.7823 32.5619 14.1652 32.3566 17.0708C32.3255 17.5001 32.7362 17.836 33.1593 17.7116C33.825 17.5063 34.5405 17.469 35.2311 17.5996C37.5205 18.0475 39.0325 20.2811 38.5845 22.5769Z" fill="#E44F39"/>
</svg>
