<svg width="40" height="40" viewBox="0 0 40 40" fill="none" xmlns="http://www.w3.org/2000/svg">
<path d="M37.0164 1.85132H19.1105C17.5178 1.85132 16.2236 3.15163 16.2236 4.74437V16.298C14.7615 15.6323 13.1564 15.2839 11.5263 15.2839C5.22371 15.2839 0.0908203 20.4105 0.0908203 26.7131C0.0908203 33.0157 5.22371 38.1486 11.5263 38.1486C17.8289 38.1486 22.9555 33.0157 22.9555 26.7131C22.9555 23.7019 21.8045 20.9145 19.7202 18.768L20.809 17.5983H37.0164C38.6154 17.5983 39.9096 16.3042 39.9096 14.7115V4.74437C39.9096 3.15163 38.6154 1.85132 37.0164 1.85132ZM21.7111 26.7131C21.7111 32.3313 17.1444 36.9042 11.5263 36.9042C5.90809 36.9042 1.3352 32.3313 1.3352 26.7131C1.3352 21.095 5.90809 16.5283 11.5263 16.5283C13.175 16.5283 14.7864 16.9265 16.2236 17.6793V19.5023C16.2236 20.5848 17.5489 21.1012 18.283 20.3173L18.8741 19.6764C20.7032 21.5864 21.7111 24.0565 21.7111 26.7131ZM38.6652 14.7115C38.6652 15.6137 37.9248 16.354 37.0164 16.354H20.5353C20.3673 16.354 20.1993 16.4287 20.0811 16.553C20.0251 16.6152 17.6173 19.1973 17.468 19.3652V4.74437C17.468 3.83601 18.2021 3.09562 19.1105 3.09562H37.0164C37.9248 3.09562 38.6652 3.83601 38.6652 4.74437V14.7115Z" fill="#E44F39"/>
<path d="M27.2606 9.5212L25.7923 10.9522L26.1407 12.968C26.2278 13.4782 25.6927 13.8639 25.2385 13.6275L23.4218 12.6694L21.6051 13.6275C21.1509 13.8639 20.6158 13.4782 20.7029 12.968L21.0513 10.9522L19.5831 9.5212C19.2159 9.16034 19.4213 8.53823 19.9315 8.46354L21.9598 8.16487L22.8619 6.32948C23.0921 5.86901 23.7516 5.86901 23.9818 6.32948L24.8839 8.16487L26.9122 8.46354C27.4223 8.53823 27.6277 9.16042 27.2606 9.5212Z" fill="#E44F39"/>
<path d="M36.5496 9.52444L35.0813 10.9555L35.4235 12.9712C35.5169 13.4814 34.9818 13.8672 34.5214 13.6308L32.7109 12.6726L30.8941 13.6308C30.44 13.8672 29.9049 13.4815 29.992 12.9712L30.3404 10.9555L28.8721 9.52444C28.505 9.16358 28.7103 8.54147 29.2206 8.46679L31.2488 8.16811L32.151 6.33272C32.3625 5.9096 33.0594 5.9096 33.2709 6.33272L34.1731 8.16811L36.2013 8.46679C36.7114 8.54147 36.9167 9.16366 36.5496 9.52444Z" fill="#E44F39"/>
<path d="M14.9731 23.5716C14.9731 25.4754 13.4239 27.0246 11.5263 27.0246C9.62246 27.0246 8.07324 25.4754 8.07324 23.5716C8.07324 21.674 9.62246 20.1248 11.5263 20.1248C13.4239 20.1248 14.9731 21.6739 14.9731 23.5716Z" fill="#E44F39"/>
<path d="M16.0306 33.7345H7.01544C6.24395 33.7345 5.64669 33.0501 5.75239 32.2848C6.16301 29.4353 8.64551 27.2888 11.5261 27.2888C14.4068 27.2888 16.883 29.4353 17.2936 32.2848C17.3994 33.0501 16.8021 33.7345 16.0306 33.7345Z" fill="#E44F39"/>
</svg>
