<svg width="40" height="40" viewBox="0 0 40 40" fill="none" xmlns="http://www.w3.org/2000/svg">
<g clip-path="url(#clip0_7974_972)">
<path d="M36.413 0.75708H3.58738C1.65871 0.75708 0.0908203 2.32489 0.0908203 4.25364V28.0142C0.0908203 29.9429 1.65871 31.5108 3.58738 31.5108H16.9951V38H12.9697C12.6275 38 12.3475 38.28 12.3475 38.6222C12.3475 38.9706 12.6275 39.2443 12.9697 39.2443H27.0307C27.3729 39.2443 27.6529 38.9706 27.6529 38.6222C27.6529 38.28 27.3729 38 27.0307 38H23.0053V31.5108H36.413C38.3417 31.5108 39.9096 29.9429 39.9096 28.0142V4.25364C39.9096 2.32489 38.3417 0.75708 36.413 0.75708ZM20.7343 28.6986H19.2661C18.9239 28.6986 18.6439 28.4186 18.6439 28.0764C18.6439 27.7342 18.9239 27.4542 19.2661 27.4542H20.7343C21.0765 27.4542 21.3565 27.7342 21.3565 28.0764C21.3565 28.4186 21.0765 28.6986 20.7343 28.6986ZM38.6652 24.6421H1.3352V4.25364C1.3352 3.00935 2.34309 2.00138 3.58746 2.00138H36.413C37.6573 2.00138 38.6653 3.00927 38.6653 4.25364V24.6421H38.6652Z" fill="#E44F39"/>
<path d="M9.95852 12.8885C11.6766 12.8885 13.0694 11.4957 13.0694 9.77761C13.0694 8.05953 11.6766 6.66675 9.95852 6.66675C8.24044 6.66675 6.84766 8.05953 6.84766 9.77761C6.84766 11.4957 8.24044 12.8885 9.95852 12.8885Z" fill="#E44F39"/>
<path d="M14.4567 19.4249H5.45392C4.68244 19.4249 4.08517 18.7342 4.19712 17.969C4.60158 15.1257 7.07775 12.9792 9.95837 12.9792C12.8327 12.9792 15.309 15.1257 15.7196 17.969C15.8254 18.7342 15.2344 19.4249 14.4567 19.4249Z" fill="#E44F39"/>
<path d="M25.8048 9.27221H36.3467C36.6903 9.27221 36.9689 8.99361 36.9689 8.65002C36.9689 8.30643 36.6903 8.02783 36.3467 8.02783H25.8048C25.4612 8.02783 25.1826 8.30643 25.1826 8.65002C25.1827 8.99361 25.4612 9.27221 25.8048 9.27221Z" fill="#E44F39"/>
<path d="M25.8048 14.2236H36.3467C36.6903 14.2236 36.9689 13.945 36.9689 13.6014C36.9689 13.2578 36.6903 12.9792 36.3467 12.9792H25.8048C25.4612 12.9792 25.1826 13.2578 25.1826 13.6014C25.1826 13.945 25.4612 14.2236 25.8048 14.2236Z" fill="#E44F39"/>
<path d="M25.8048 19.175H36.3467C36.6903 19.175 36.9689 18.8964 36.9689 18.5529C36.9689 18.2093 36.6903 17.9307 36.3467 17.9307H25.8048C25.4612 17.9307 25.1826 18.2093 25.1826 18.5529C25.1827 18.8964 25.4612 19.175 25.8048 19.175Z" fill="#E44F39"/>
</g>
<defs>
<clipPath id="clip0_7974_972">
<rect width="40" height="40" fill="white"/>
</clipPath>
</defs>
</svg>
