<svg width="152" height="151" viewBox="0 0 152 151" fill="none" xmlns="http://www.w3.org/2000/svg">
<path d="M150.545 75.5C150.545 116.857 116.983 150.385 75.5801 150.385C34.1774 150.385 0.615058 116.857 0.615058 75.5C0.615058 34.1428 34.1774 0.615058 75.5801 0.615058C116.983 0.615058 150.545 34.1428 150.545 75.5Z" fill="#E44F39" stroke="#232323" stroke-width="1.23012"/>
<path d="M118.941 109.053L125.522 112.213L124.465 113.326L119.461 110.834L119.875 110.399L122.655 115.231L121.822 116.109L116.845 113.589L117.252 113.161L120.012 118.014L118.962 119.12L115.457 112.721L116.291 111.843L121.274 114.356L120.881 114.77L118.107 109.931L118.941 109.053Z" fill="white"/>
<path d="M102.27 122.963C102.707 122.738 103.154 122.631 103.609 122.641C104.061 122.66 104.476 122.786 104.855 123.02C105.233 123.253 105.53 123.58 105.746 124C105.962 124.42 106.053 124.849 106.02 125.287C105.986 125.724 105.844 126.129 105.593 126.501C105.344 126.879 104.998 127.182 104.555 127.409C104.111 127.637 103.665 127.744 103.215 127.731C102.766 127.718 102.353 127.595 101.974 127.361C101.599 127.134 101.303 126.81 101.087 126.389C100.872 125.969 100.779 125.538 100.809 125.094C100.84 124.651 100.979 124.241 101.227 123.863C101.478 123.49 101.826 123.191 102.27 122.963ZM102.895 124.18C102.702 124.278 102.554 124.406 102.45 124.563C102.349 124.725 102.3 124.901 102.302 125.092C102.301 125.292 102.352 125.491 102.453 125.689C102.555 125.887 102.685 126.038 102.841 126.142C103.001 126.252 103.175 126.311 103.363 126.317C103.548 126.333 103.737 126.291 103.93 126.193C104.116 126.097 104.26 125.968 104.361 125.805C104.465 125.649 104.519 125.474 104.523 125.28C104.526 125.087 104.477 124.891 104.375 124.692C104.276 124.5 104.146 124.345 103.983 124.23C103.823 124.12 103.648 124.059 103.457 124.046C103.269 124.039 103.082 124.084 102.895 124.18Z" fill="white"/>
<path d="M90.6948 127.927L91.7961 132.581L90.3307 132.927L89.2295 128.273L90.6948 127.927ZM89.8345 130.83L90.5608 131.164C90.5678 131.735 90.4632 132.205 90.2469 132.573C90.0306 132.941 89.667 133.185 89.1562 133.306C88.9327 133.358 88.7297 133.369 88.547 133.338C88.3595 133.315 88.1853 133.248 88.0244 133.138L88.6354 131.831C88.7158 131.886 88.8085 131.922 88.9133 131.937C89.0182 131.953 89.1312 131.946 89.2526 131.918C89.4952 131.86 89.6718 131.738 89.7824 131.55C89.8881 131.37 89.9055 131.13 89.8345 130.83Z" fill="white"/>
<path d="M76.4422 129.967L78.1115 132.449L76.445 134.749L74.7622 134.747L76.7735 132.162L76.7234 132.782L74.6708 129.964L76.4422 129.967ZM79.5027 129.971L79.4923 137.116L77.9866 137.113L77.997 129.969L79.5027 129.971Z" fill="white"/>
<path d="M65.5994 129.047L64.5652 133.717L63.0951 133.392L64.1292 128.723L65.5994 129.047ZM63.6828 134.197C63.9134 134.248 64.0886 134.368 64.2083 134.555C64.3201 134.748 64.3513 134.956 64.3016 135.181C64.2505 135.411 64.1343 135.587 63.9529 135.708C63.7651 135.828 63.5559 135.862 63.3253 135.811C63.0947 135.76 62.9227 135.642 62.8094 135.455C62.6962 135.269 62.665 135.061 62.7161 134.83C62.7658 134.606 62.882 134.43 63.0648 134.303C63.2462 134.181 63.4522 134.146 63.6828 134.197Z" fill="white"/>
<path d="M53.4662 125.225L52.2976 127.688C52.1907 127.913 52.1761 128.128 52.2537 128.331C52.3226 128.538 52.4638 128.692 52.6772 128.793C52.8255 128.864 52.9714 128.893 53.115 128.881C53.2558 128.875 53.3869 128.828 53.5084 128.74C53.627 128.659 53.7215 128.544 53.7918 128.396L54.1943 128.902C54.034 129.24 53.8192 129.501 53.55 129.686C53.2809 129.87 52.9835 129.969 52.6579 129.982C52.3236 129.998 51.9904 129.927 51.6583 129.77C51.3381 129.618 51.093 129.408 50.9231 129.139C50.7443 128.873 50.6429 128.581 50.6187 128.265C50.5945 127.949 50.6527 127.642 50.7933 127.346L52.1054 124.581L53.4662 125.225ZM56.3212 126.577L54.271 130.898L52.9101 130.254L54.9604 125.933L56.3212 126.577Z" fill="white"/>
<path d="M43.0173 116.397C43.4123 116.743 43.6998 117.116 43.8798 117.518C44.0592 117.911 44.1272 118.306 44.0837 118.704L42.7777 118.79C42.7834 118.525 42.7419 118.283 42.6531 118.066C42.5594 117.845 42.399 117.635 42.1719 117.436C41.8905 117.19 41.6102 117.066 41.3311 117.066C41.0471 117.062 40.7948 117.185 40.5741 117.437L39.7695 118.354L38.8892 118.97L38.3717 119.903L37.5606 120.828L36.4498 119.856L39.4151 116.475C39.7396 116.105 40.1072 115.86 40.5179 115.74C40.9286 115.62 41.3516 115.615 41.7868 115.726C42.2221 115.836 42.6323 116.06 43.0173 116.397ZM41.5573 118.166C41.8881 118.456 42.1126 118.792 42.2309 119.174C42.3492 119.557 42.3634 119.949 42.2736 120.35C42.1838 120.75 41.994 121.116 41.7042 121.447C41.41 121.782 41.0721 122.018 40.6904 122.155C40.3043 122.296 39.9159 122.331 39.5251 122.26C39.1299 122.193 38.767 122.015 38.4362 121.725C38.1894 121.509 38.0108 121.27 37.9004 121.008C37.7808 120.746 37.7353 120.48 37.7639 120.208C37.7832 119.938 37.8806 119.687 38.0562 119.457L39.2566 118.088C39.4574 117.889 39.6931 117.76 39.9636 117.7C40.2248 117.641 40.4953 117.651 40.7749 117.73C41.0546 117.809 41.3154 117.955 41.5573 118.166ZM40.4601 118.985C40.3021 118.846 40.136 118.762 39.9619 118.732C39.7829 118.697 39.614 118.711 39.4552 118.772C39.2872 118.834 39.1384 118.94 39.0086 119.088C38.8788 119.236 38.7941 119.397 38.7545 119.571C38.7099 119.742 38.7166 119.913 38.7745 120.086C38.8275 120.254 38.933 120.408 39.0909 120.546C39.244 120.68 39.41 120.764 39.5891 120.799C39.7681 120.833 39.9417 120.82 40.1097 120.757C40.2777 120.695 40.4265 120.59 40.5563 120.442C40.6774 120.304 40.76 120.145 40.804 119.966C40.8436 119.791 40.8369 119.62 40.7839 119.451C40.726 119.278 40.6181 119.123 40.4601 118.985Z" fill="white"/>
<path d="M26.1619 97.8889C26.3715 98.4198 26.4667 98.9111 26.4475 99.3629C26.4198 99.811 26.2916 100.263 26.0628 100.72L24.7695 100.151C24.9257 99.8495 25.0215 99.5473 25.057 99.2442C25.0841 98.9374 25.0313 98.6162 24.8989 98.2806C24.7784 97.9755 24.6308 97.7622 24.4559 97.6407C24.2785 97.5131 24.0922 97.4878 23.8969 97.5647C23.7199 97.6344 23.5981 97.7458 23.5316 97.899C23.465 98.0521 23.4282 98.2358 23.4211 98.4501C23.4116 98.6584 23.4136 98.8867 23.4271 99.1353C23.4381 99.3777 23.44 99.6238 23.4328 99.8734C23.4194 100.125 23.3787 100.371 23.3105 100.609C23.2339 100.844 23.1104 101.058 22.9401 101.252C22.7637 101.448 22.5107 101.612 22.1811 101.741C21.7843 101.898 21.4051 101.938 21.0436 101.862C20.6796 101.779 20.3569 101.596 20.0755 101.312C19.788 101.03 19.5564 100.667 19.3805 100.221C19.2023 99.7698 19.1191 99.3266 19.1308 98.8919C19.1402 98.451 19.2341 98.0544 19.4124 97.7022L20.7057 98.2716C20.5814 98.5462 20.5101 98.8034 20.4919 99.0433C20.4713 99.277 20.5104 99.519 20.6092 99.7692C20.7079 100.019 20.835 100.199 20.9905 100.307C21.1399 100.417 21.3031 100.437 21.4801 100.368C21.6449 100.303 21.7575 100.195 21.8179 100.044C21.8723 99.8957 21.9011 99.7187 21.9045 99.5129C21.9055 99.3009 21.9005 99.0738 21.8894 98.8313C21.876 98.5828 21.8759 98.3325 21.8893 98.0804C21.9026 97.8284 21.9507 97.5838 22.0334 97.3467C22.1077 97.106 22.2391 96.885 22.4277 96.6838C22.6102 96.485 22.8693 96.3194 23.2051 96.1872C23.8216 95.9444 24.3936 95.9729 24.921 96.2729C25.4424 96.5752 25.856 97.1139 26.1619 97.8889Z" fill="white"/>
<path d="M22.1319 85.0035L17.3972 85.6797L17.1839 84.1892L21.9186 83.513L22.1319 85.0035ZM16.6372 85.0228C16.6706 85.2566 16.6206 85.4625 16.487 85.6407C16.346 85.8132 16.1619 85.9157 15.9345 85.9482C15.7007 85.9816 15.4952 85.9347 15.3179 85.8076C15.1398 85.674 15.0339 85.4903 15.0005 85.2565C14.967 85.0227 15.0175 84.82 15.152 84.6484C15.2865 84.4767 15.4707 84.3742 15.7045 84.3408C15.9318 84.3084 16.1373 84.3552 16.3211 84.4814C16.4983 84.6085 16.6037 84.789 16.6372 85.0228Z" fill="white"/>
<path d="M21.4406 72.3088L18.724 72.0833C18.4756 72.0627 18.2696 72.1246 18.1062 72.269C17.9368 72.4063 17.8423 72.5927 17.8227 72.8281C17.8091 72.9915 17.8331 73.1383 17.8947 73.2685C17.9497 73.3982 18.0396 73.5044 18.1644 73.5872C18.2826 73.6694 18.4235 73.7173 18.5869 73.7309L18.2544 74.2859C17.8817 74.2549 17.5616 74.1461 17.2941 73.9593C17.0265 73.7725 16.8295 73.529 16.7031 73.2289C16.5707 72.9216 16.5197 72.5849 16.5501 72.2188C16.5795 71.8658 16.6903 71.5623 16.8826 71.3083C17.0689 71.0473 17.3059 70.8497 17.5935 70.7156C17.8812 70.5815 18.1885 70.528 18.5154 70.5551L21.5654 70.8083L21.4406 72.3088ZM21.1787 75.4568L16.4124 75.0612L16.5372 73.5607L21.3035 73.9564L21.1787 75.4568Z" fill="white"/>
<path d="M24.2312 58.4534C24.0578 58.9139 23.7993 59.2933 23.4556 59.5917C23.1119 59.8901 22.7215 60.0798 22.2844 60.1609C21.8473 60.242 21.4077 60.1994 20.9655 60.0333C20.5171 59.8649 20.1584 59.6075 19.8892 59.2611C19.6162 58.9062 19.4489 58.5034 19.3873 58.0528C19.3256 57.6021 19.3826 57.1434 19.5583 56.6768C19.69 56.3268 19.8717 56.0306 20.1031 55.7882C20.3308 55.5373 20.6071 55.3433 20.9322 55.2061L21.4952 56.4478C21.3392 56.5084 21.207 56.5989 21.0985 56.7193C20.9924 56.8336 20.9058 56.9798 20.8388 57.1579C20.7625 57.3605 20.7404 57.5589 20.7724 57.7532C20.8006 57.939 20.8772 58.1079 21.0022 58.26C21.1234 58.4036 21.2884 58.5147 21.4972 58.5931C21.706 58.6716 21.9064 58.6978 22.0985 58.6718C22.2928 58.6397 22.4661 58.5612 22.6183 58.4361C22.7705 58.3111 22.8836 58.1504 22.9576 57.9539C23.027 57.7697 23.0575 57.5954 23.0493 57.4311C23.0372 57.2584 22.9924 57.0979 22.9151 56.9497L24.1542 56.3955C24.312 56.7211 24.3999 57.0555 24.4179 57.3987C24.4298 57.7396 24.3676 58.0911 24.2312 58.4534Z" fill="white"/>
<path d="M30.9317 45.0143C30.6234 45.431 30.2639 45.7404 29.853 45.9427C29.4408 46.1358 29.0134 46.2116 28.5707 46.1702C28.128 46.1287 27.714 45.9658 27.3287 45.6813C26.9434 45.3968 26.6667 45.0538 26.4986 44.6524C26.3291 44.2418 26.2723 43.8166 26.3284 43.3768C26.3845 42.9371 26.5569 42.5221 26.8457 42.1318C27.1267 41.7521 27.4563 41.4776 27.8345 41.3084C28.2128 41.1391 28.6075 41.0799 29.0188 41.1308C29.4339 41.1763 29.8289 41.3375 30.2036 41.6142C30.2722 41.6648 30.3422 41.7247 30.4135 41.7937C30.4835 41.8535 30.5608 41.931 30.6455 42.0261L28.2008 45.3465L27.3695 44.7328L29.4338 41.9265L29.3958 42.7058C29.1702 42.5474 28.9628 42.4473 28.7734 42.4053C28.5788 42.3595 28.3978 42.3726 28.2302 42.4446C28.0613 42.5074 27.9105 42.6285 27.7778 42.8078C27.6373 42.9977 27.5592 43.1969 27.5436 43.4056C27.5266 43.605 27.568 43.8028 27.6678 43.9988C27.7715 44.1896 27.9368 44.3687 28.1637 44.5363C28.3907 44.7039 28.6152 44.8085 28.8374 44.8502C29.0581 44.8827 29.268 44.8583 29.467 44.7769C29.6646 44.6863 29.8395 44.5382 29.9917 44.3325C30.1322 44.1426 30.2274 43.9478 30.2772 43.7481C30.3218 43.5445 30.321 43.336 30.2749 43.1226L31.4316 42.9491C31.5128 43.3026 31.5093 43.6548 31.4211 44.0056C31.3329 44.3564 31.1698 44.6926 30.9317 45.0143Z" fill="white"/>
<path d="M48.2561 28.7422L45.0178 22.5953L46.3767 21.8809L49.6149 28.0278L48.2561 28.7422ZM44.4432 24.376L43.8332 23.218L46.2896 21.9267L46.8996 23.0847L44.4432 24.376Z" fill="white"/>
<path d="M59.9438 23.5386L61.4245 20.1004L61.9735 19.9396C61.9226 20.1053 61.8586 20.257 61.7815 20.3948C61.7093 20.5249 61.6034 20.6388 61.4637 20.7366C61.3289 20.8266 61.1366 20.8991 60.8867 20.9539C60.4766 21.0439 60.0774 21.0308 59.6891 20.9145C59.3058 20.7904 58.9749 20.5843 58.6966 20.2961C58.4232 20.0001 58.2394 19.6374 58.145 19.2081C58.0463 18.7596 58.0697 18.3313 58.215 17.9233C58.3604 17.5152 58.5989 17.164 58.9305 16.8696C59.262 16.5752 59.6649 16.3759 60.1391 16.2718C60.6133 16.1678 61.0627 16.18 61.4873 16.3084C61.9105 16.4305 62.2704 16.647 62.5672 16.958C62.869 17.2612 63.0692 17.6371 63.1679 18.0856C63.2947 18.6623 63.2236 19.2858 62.9545 19.956L61.6547 23.1631L59.9438 23.5386ZM60.9085 19.7703C61.1072 19.7267 61.2761 19.6393 61.4151 19.508C61.5542 19.3768 61.651 19.2212 61.7054 19.0413C61.7585 18.855 61.7625 18.6594 61.7174 18.4543C61.6709 18.2429 61.5845 18.0637 61.4581 17.9168C61.3318 17.7699 61.1786 17.6692 60.9987 17.6146C60.8174 17.5537 60.6274 17.545 60.4287 17.5886C60.2236 17.6336 60.0516 17.7217 59.9125 17.853C59.7785 17.9765 59.6817 18.132 59.6222 18.3197C59.5691 18.506 59.5658 18.7049 59.6123 18.9163C59.6574 19.1214 59.7432 19.2973 59.8695 19.4442C60.0009 19.5833 60.1572 19.6833 60.3386 19.7443C60.5199 19.8053 60.7099 19.8139 60.9085 19.7703Z" fill="white"/>
<path d="M77.4289 21.4504C76.9318 21.4116 76.5038 21.2894 76.1447 21.0838C75.7922 20.8786 75.5233 20.6142 75.338 20.2905C75.1593 19.9673 75.0852 19.6094 75.1159 19.217C75.1414 18.89 75.2265 18.6005 75.3712 18.3485C75.5225 18.0971 75.7195 17.892 75.9622 17.7332C76.2114 17.575 76.4923 17.4751 76.8049 17.4337L76.7509 17.7454C76.4939 17.6661 76.2799 17.5408 76.109 17.3696C75.9387 17.1918 75.8134 16.9846 75.7331 16.7481C75.6529 16.5115 75.6225 16.2689 75.6419 16.0204C75.6705 15.6541 75.7874 15.3375 75.9925 15.0705C76.2046 14.7975 76.4839 14.5922 76.8302 14.4547C77.1766 14.3172 77.5623 14.265 77.9875 14.2981C78.4192 14.3318 78.7921 14.4431 79.1064 14.6321C79.4272 14.8216 79.668 15.0674 79.8286 15.3694C79.9964 15.6655 80.0659 15.9966 80.0373 16.3629C80.0179 16.6115 79.9502 16.8464 79.8342 17.0677C79.7248 17.2894 79.5721 17.475 79.3762 17.6242C79.1808 17.7669 78.9499 17.8575 78.6837 17.896L78.669 17.579C78.9778 17.6688 79.2398 17.811 79.455 18.0054C79.6766 18.2004 79.8394 18.4335 79.9433 18.7048C80.0471 18.9761 80.0862 19.2753 80.0607 19.6023C80.0301 19.9948 79.9013 20.3368 79.6746 20.6284C79.4478 20.92 79.1411 21.1396 78.7545 21.2872C78.3744 21.4352 77.9326 21.4896 77.4289 21.4504ZM77.5316 20.1357C77.7278 20.151 77.9042 20.1252 78.0608 20.0585C78.2179 19.9852 78.3445 19.8799 78.4408 19.7426C78.5436 19.6059 78.6019 19.4492 78.6157 19.2726C78.63 19.0894 78.5967 18.9256 78.5159 18.7811C78.4421 18.6306 78.333 18.5102 78.1887 18.42C78.0449 18.3233 77.8749 18.2673 77.6787 18.252C77.4825 18.2367 77.3058 18.2657 77.1487 18.339C76.9922 18.4058 76.8658 18.5078 76.7695 18.645C76.6737 18.7758 76.6187 18.9327 76.6044 19.1158C76.5906 19.2924 76.6206 19.456 76.6944 19.6065C76.7682 19.757 76.877 19.8807 77.0208 19.9774C77.1651 20.0676 77.3354 20.1204 77.5316 20.1357ZM77.766 17.1335C77.995 17.1513 78.187 17.0939 78.3421 16.9612C78.5043 16.8225 78.5941 16.642 78.6115 16.4196C78.6293 16.1907 78.5687 15.9984 78.4295 15.8428C78.2973 15.6811 78.1168 15.5914 77.8879 15.5735C77.6655 15.5562 77.4735 15.6136 77.3118 15.7458C77.1501 15.878 77.0603 16.0585 77.0424 16.2875C77.0251 16.5098 77.0857 16.7021 77.2244 16.8643C77.3631 17.0264 77.5437 17.1162 77.766 17.1335Z" fill="white"/>
<path d="M93.0569 24.282C92.5908 24.105 92.2144 23.8673 91.9279 23.569C91.6474 23.273 91.4639 22.9436 91.3773 22.5809C91.2969 22.2205 91.3267 21.8563 91.4667 21.4884C91.5834 21.1819 91.7466 20.9281 91.9565 20.7271C92.1725 20.5284 92.4194 20.3871 92.697 20.303C92.9808 20.2213 93.2785 20.2046 93.5901 20.2527L93.4505 20.5366C93.2262 20.3882 93.0562 20.2078 92.9405 19.9955C92.8271 19.777 92.7652 19.5429 92.7549 19.2934C92.7446 19.0438 92.7838 18.8026 92.8724 18.5696C93.0031 18.2262 93.2045 17.9553 93.4766 17.7569C93.7571 17.5546 94.083 17.4363 94.4541 17.4018C94.8252 17.3673 95.2101 17.4257 95.6088 17.5772C96.0136 17.7309 96.3401 17.9426 96.5884 18.2124C96.8429 18.4845 97.0046 18.788 97.0737 19.123C97.1512 19.4542 97.1246 19.7915 96.9939 20.1349C96.9053 20.3679 96.7741 20.5742 96.6004 20.7539C96.4329 20.9359 96.234 21.0709 96.004 21.159C95.7762 21.2409 95.5292 21.2629 95.2629 21.2249L95.3381 20.9166C95.6091 21.0897 95.8205 21.2998 95.9722 21.5469C96.1299 21.7963 96.2204 22.0658 96.2436 22.3553C96.2668 22.6448 96.22 22.9429 96.1034 23.2494C95.9633 23.6173 95.7434 23.9093 95.4436 24.1252C95.1438 24.3412 94.7876 24.4656 94.375 24.4984C93.9685 24.5335 93.5292 24.4613 93.0569 24.282ZM93.526 23.0495C93.71 23.1194 93.8865 23.1444 94.0556 23.1244C94.227 23.0982 94.3782 23.0329 94.5093 22.9282C94.6465 22.826 94.7466 22.692 94.8096 22.5265C94.8749 22.3548 94.8892 22.1883 94.8523 22.0269C94.8239 21.8617 94.7532 21.7156 94.6402 21.5884C94.5294 21.4551 94.3821 21.3535 94.1981 21.2837C94.0141 21.2138 93.8364 21.1919 93.665 21.218C93.4959 21.2381 93.3458 21.3004 93.2148 21.405C93.086 21.5035 92.989 21.6385 92.9237 21.8102C92.8606 21.9758 92.8433 22.1411 92.8717 22.3063C92.9001 22.4715 92.9697 22.6207 93.0804 22.754C93.1935 22.8812 93.342 22.9797 93.526 23.0495ZM94.5971 20.2352C94.8118 20.3167 95.0123 20.3156 95.1985 20.232C95.3933 20.1445 95.5303 19.9966 95.6097 19.7881C95.6913 19.5735 95.6873 19.372 95.5976 19.1835C95.5163 18.9912 95.3684 18.8543 95.1537 18.7728C94.9452 18.6936 94.7447 18.6947 94.5523 18.776C94.3599 18.8573 94.2229 19.0053 94.1412 19.2199C94.0619 19.4283 94.0659 19.6299 94.1533 19.8245C94.2406 20.0191 94.3886 20.156 94.5971 20.2352Z" fill="white"/>
<path d="M113.87 36.8441L114.764 36.0424L115.856 37.2573C116.058 37.4817 116.281 37.5982 116.527 37.6068C116.773 37.6154 116.991 37.5342 117.182 37.3634C117.314 37.2451 117.405 37.1107 117.455 36.9601C117.504 36.8096 117.51 36.6544 117.473 36.4945C117.439 36.3394 117.354 36.1863 117.218 36.035L116.126 34.8201L116.998 34.0382L118.005 35.1579C118.176 35.3482 118.36 35.4603 118.558 35.4941C118.761 35.5236 118.96 35.4507 119.156 35.2755C119.346 35.1047 119.435 34.9191 119.423 34.7187C119.415 34.514 119.326 34.3165 119.155 34.1262L118.148 33.0065L119.042 32.2048L120.246 33.5441C120.544 33.8759 120.735 34.2112 120.819 34.55C120.908 34.8938 120.904 35.2186 120.809 35.5246C120.713 35.8305 120.541 36.0952 120.292 36.3187C119.974 36.6034 119.614 36.7419 119.21 36.7341C118.806 36.7263 118.382 36.5596 117.94 36.234L118.354 35.915C118.662 36.4237 118.794 36.9091 118.75 37.3711C118.711 37.8379 118.506 38.2379 118.135 38.5708C117.852 38.8249 117.532 38.9841 117.175 39.0485C116.827 39.1134 116.469 39.0733 116.101 38.9281C115.736 38.7878 115.39 38.5347 115.061 38.1687L113.87 36.8441ZM113.081 35.9658L118.252 31.3266L119.272 32.461L114.1 37.1002L113.081 35.9658Z" fill="white"/>
<path d="M123.816 50.531C123.592 50.0636 123.487 49.6012 123.501 49.1438C123.523 48.6895 123.657 48.2768 123.901 47.9056C124.145 47.5344 124.483 47.2456 124.915 47.0391C125.347 46.8326 125.78 46.7493 126.214 46.7892C126.656 46.8322 127.059 46.9816 127.421 47.2374C127.784 47.4931 128.07 47.8399 128.28 48.2778C128.484 48.7038 128.572 49.1234 128.544 49.5365C128.517 49.9496 128.384 50.3257 128.146 50.6647C127.911 51.0097 127.584 51.2826 127.164 51.4834C127.087 51.5202 127.001 51.5539 126.906 51.5845C126.821 51.6182 126.716 51.6501 126.592 51.6801L124.802 47.9655L125.735 47.52L127.248 50.6577L126.577 50.2586C126.823 50.1339 127.009 49.9978 127.134 49.8504C127.266 49.7002 127.339 49.5343 127.354 49.3527C127.378 49.1742 127.342 48.9843 127.245 48.7831C127.143 48.5701 127.004 48.4078 126.826 48.2961C126.658 48.1875 126.464 48.1313 126.244 48.1274C126.026 48.1294 125.791 48.1913 125.536 48.3129C125.282 48.4345 125.084 48.5836 124.943 48.76C124.811 48.9396 124.734 49.1362 124.712 49.35C124.7 49.5669 124.749 49.7907 124.859 50.0214C124.961 50.2344 125.089 50.4098 125.242 50.5474C125.401 50.6822 125.586 50.7794 125.796 50.8388L125.408 51.9408C125.057 51.8466 124.747 51.6783 124.479 51.436C124.21 51.1936 123.989 50.892 123.816 50.531Z" fill="white"/>
<path d="M128.727 63.9875C128.677 63.7099 128.663 63.4291 128.685 63.1451C128.708 62.8676 128.764 62.6011 128.851 62.3454C128.946 62.095 129.066 61.8735 129.211 61.6807L130.215 62.3701C130.075 62.5552 129.976 62.763 129.918 62.9935C129.866 63.2228 129.862 63.4634 129.908 63.7152C129.939 63.8896 129.989 64.0173 130.057 64.0984C130.126 64.1859 130.206 64.2216 130.296 64.2053C130.412 64.1844 130.489 64.1107 130.526 63.984C130.571 63.8626 130.6 63.7107 130.614 63.5283C130.634 63.3446 130.656 63.1508 130.679 62.9466C130.702 62.7425 130.75 62.5439 130.822 62.351C130.894 62.1581 131.01 61.9905 131.171 61.8483C131.339 61.7048 131.565 61.6076 131.849 61.5565C132.152 61.502 132.428 61.5324 132.675 61.6479C132.929 61.7622 133.146 61.9499 133.326 62.2107C133.507 62.4716 133.631 62.7925 133.7 63.1735C133.772 63.5738 133.767 63.9546 133.686 64.3159C133.612 64.6824 133.458 64.9966 133.226 65.2585L132.221 64.5691C132.369 64.3893 132.461 64.1993 132.499 63.9993C132.537 63.8058 132.541 63.6218 132.509 63.4475C132.479 63.2796 132.431 63.1584 132.364 63.0837C132.303 63.0079 132.228 62.9781 132.138 62.9944C132.041 63.0118 131.973 63.0806 131.935 63.2008C131.897 63.321 131.87 63.4723 131.857 63.6548C131.843 63.8373 131.821 64.0311 131.792 64.2364C131.762 64.4418 131.708 64.6414 131.629 64.8355C131.551 65.0296 131.428 65.1983 131.261 65.3417C131.1 65.484 130.871 65.5818 130.574 65.6352C130.115 65.7177 129.719 65.6089 129.385 65.309C129.052 65.0156 128.833 64.5751 128.727 63.9875Z" fill="white"/>
<path d="M130.1 76.8192L136.85 77.1939L136.766 78.6972L130.016 78.3226L130.1 76.8192ZM133.658 75.9325L134.935 76.0034L134.731 79.6684L133.454 79.5975L133.658 75.9325Z" fill="white"/>
<path d="M81.8438 86.9388H64.4381C64.3556 86.9388 64.2765 86.9066 64.2181 86.8492C64.1597 86.7919 64.127 86.7141 64.127 86.6329V69.489C64.127 69.4079 64.1597 69.3301 64.2181 69.2727C64.2765 69.2153 64.3556 69.1831 64.4381 69.1831H81.8438C81.9264 69.1831 82.0055 69.2153 82.0639 69.2727C82.1222 69.3301 82.155 69.4079 82.155 69.489V86.6329C82.155 86.7141 82.1222 86.7919 82.0639 86.8492C82.0055 86.9066 81.9264 86.9388 81.8438 86.9388ZM64.7493 86.327H81.5327V69.7929H64.7493V86.327Z" fill="white"/>
<path d="M86.7271 81.825H69.3214C69.2389 81.825 69.1598 81.7928 69.1014 81.7354C69.043 81.678 69.0103 81.6002 69.0103 81.5191V75.6189C69.0103 75.5377 69.043 75.4599 69.1014 75.4025C69.1598 75.3452 69.2389 75.3129 69.3214 75.3129H73.7527C73.8353 75.3129 73.9144 75.3452 73.9728 75.4025C74.0311 75.4599 74.0639 75.5377 74.0639 75.6189C74.0639 75.7 74.0311 75.7778 73.9728 75.8352C73.9144 75.8926 73.8353 75.9248 73.7527 75.9248H69.6326V81.2132H86.4077V64.6709H69.6243V69.4882C69.6243 69.5693 69.5915 69.6471 69.5332 69.7045C69.4748 69.7619 69.3957 69.7941 69.3131 69.7941C69.2306 69.7941 69.1515 69.7619 69.0931 69.7045C69.0347 69.6471 69.002 69.5693 69.002 69.4882V64.365C69.002 64.2839 69.0347 64.2061 69.0931 64.1487C69.1515 64.0913 69.2306 64.0591 69.3131 64.0591H86.7188C86.8014 64.0591 86.8805 64.0913 86.9389 64.1487C86.9972 64.2061 87.03 64.2839 87.03 64.365V81.5109C87.0317 81.5919 87.0009 81.6703 86.9442 81.7291C86.8875 81.7879 86.8095 81.8223 86.7271 81.825Z" fill="white"/>
<path d="M75.8558 76.5873C75.6604 76.5877 75.4693 76.5311 75.3066 76.4247C75.1439 76.3183 75.017 76.1668 74.942 75.9895C74.8669 75.8121 74.8471 75.6169 74.8849 75.4284C74.9228 75.24 75.0167 75.0668 75.1547 74.9308C75.2927 74.7948 75.4687 74.7022 75.6603 74.6646C75.8519 74.6269 76.0506 74.646 76.2311 74.7195C76.4117 74.7929 76.566 74.9173 76.6746 75.077C76.7832 75.2367 76.8412 75.4245 76.8412 75.6165C76.8412 75.8737 76.7375 76.1203 76.5527 76.3023C76.368 76.4843 76.1173 76.5868 75.8558 76.5873ZM75.8558 75.2596C75.7834 75.2592 75.7125 75.28 75.6522 75.3193C75.5918 75.3586 75.5447 75.4146 75.5168 75.4803C75.4889 75.5459 75.4815 75.6183 75.4955 75.6881C75.5095 75.7579 75.5443 75.8221 75.5955 75.8724C75.6467 75.9227 75.712 75.9569 75.783 75.9707C75.854 75.9845 75.9276 75.9772 75.9944 75.9498C76.0612 75.9224 76.1182 75.8761 76.1582 75.8167C76.1981 75.7574 76.2192 75.6877 76.2188 75.6165C76.2183 75.5221 76.1799 75.4316 76.1119 75.3648C76.0439 75.2979 75.9519 75.2602 75.8558 75.2596Z" fill="white"/>
</svg>
